<?xml version="1.0" encoding="UTF-8"?> <!-- Generator: Adobe Illustrator 25.4.1, SVG Export Plug-In . SVG Version: 6.00 Build 0) --> <svg xmlns="http://www.w3.org/2000/svg" xmlns:xlink="http://www.w3.org/1999/xlink" version="1.1" x="0px" y="0px" viewBox="0 0 1266 360.19" style="enable-background:new 0 0 1266 360.19;" xml:space="preserve"> <style type="text/css"> .st0{display:none;} .st1{display:inline;} .st2{fill:#57575B;} .st3{fill:#FBAD27;} .st4{fill:#718456;} .st5{fill:#225FAC;} .st6{fill:#F26822;} .st7{fill:none;stroke:#808285;stroke-width:2;stroke-miterlimit:10;} </style> <g id="Toate" class="st0"> <g class="st1"> <path class="st2" d="M185.95,181.09c0,20.64-6.54,38.57-19.61,53.79c-13.69,16.04-30.7,24.05-51.03,24.05 c-12.67,0-23.75-3.93-33.26-11.8c-4.28-3.98-8.58-8.02-12.87-12.1c-0.62,0.31-1.02,1.12-1.22,2.46 c-0.11,0.61-0.15,6.33-0.15,17.16l-0.16,67.87c0,3.27-1.17,4.91-3.52,4.91c-15.74,0-25.03-0.21-27.89-0.62 c-2.34-0.3-3.52-1.63-3.52-3.98c0-13.08,0.1-57.36,0.31-83.51c0.2-26.15,0.31-45.76,0.31-58.83c0-24-1.53-46.53-4.59-67.57 c-0.21-1.22-0.31-2.04-0.31-2.45c0-1.12,0.5-1.84,1.53-2.15c3.89-0.21,9.55-0.76,17.01-1.69c10.01-1.84,15.64-2.76,16.86-2.76 c1.74,0,2.86,3.06,3.37,9.19c0.31,4.09,0.56,8.12,0.77,12.11c0,0.82,0.3,1.63,0.91,2.45c0.71-0.41,1.53-1.12,2.46-2.14 c14.3-14.61,28.76-21.91,43.36-21.91c20.23,0,37.29,7.92,51.19,23.75C179.26,142.53,185.95,160.46,185.95,181.09z M150.09,180.48 c0-12.25-3.83-23.04-11.49-32.33c-8.07-9.91-18.13-14.86-30.18-14.86c-11.85,0-21.55,5.11-29.11,15.32 c-6.96,9.19-10.43,19.92-10.43,32.18c0,12.46,3.58,23.29,10.72,32.49c7.87,9.91,17.88,14.86,30.03,14.86 c11.65,0,21.45-5.16,29.42-15.47C146.41,203.06,150.09,192.33,150.09,180.48z"></path> <path class="st2" d="M286.06,103.6c0,11.23-0.77,21.45-2.3,30.64c-0.31,2.36-1.33,3.52-3.07,3.52c-2.14,0-5.38-0.23-9.73-0.68 c-4.34-0.46-7.63-0.69-9.88-0.69c-12.88,0-21.09,3.63-24.67,10.87c-2.14,4.39-3.22,13.54-3.22,27.43v16.85 c0,5.73,0.24,14.41,0.69,26.05c0.46,11.64,0.69,20.33,0.69,26.05c0,2.75-1.18,4.13-3.52,4.13c-3.17,0-7.97-0.05-14.41-0.15 c-6.44-0.11-11.24-0.16-14.41-0.16c-2.34,0-3.52-1.27-3.52-3.82c0-8.28,0.13-20.75,0.39-37.4c0.25-16.65,0.38-29.16,0.38-37.54 c0-25.23-2.36-45.51-7.05-60.83c-0.21-0.81-0.31-1.43-0.31-1.84c0-1.22,0.66-2.1,1.99-2.61c3.78-0.41,9.1-1.02,15.94-1.84 c11.04-2.05,16.14-3.06,15.33-3.06c1.63,0,2.71,3.01,3.22,9.03c0.51,6.04,1.43,9.05,2.76,9.05c0.2,0,0.46-0.1,0.76-0.31 c4.19-2.65,8.38-5.31,12.57-7.96c4.6-2.76,9.29-4.8,14.1-6.13c3.98-1.23,9.09-1.84,15.32-1.84 C282.07,100.38,286.06,101.45,286.06,103.6z"></path> <path class="st2" d="M611.32,165.19c0,7.56-3.27,12.62-9.8,15.17c-4.4,1.64-36.02,4.65-94.86,9.04c1.33,9,6.29,16.66,14.86,22.99 c8.17,6.03,16.96,9.04,26.36,9.04c16.13,0,30.95-5.21,44.43-15.63c1.64-1.32,3.27-2.65,4.9-3.98c0.82,0,1.35,0.1,1.62,0.3 c0.25,0.21,2.16,3.76,5.74,10.65c3.58,6.89,5.37,10.6,5.37,11.11c0,0.61-0.82,1.79-2.46,3.53c-15.02,15.94-34.26,23.9-57.76,23.9 c-23.71,0-42.6-7.07-56.7-21.22c-14.1-14.14-21.15-33.02-21.15-56.62c0-21.04,6.75-39.38,20.23-55.01 c14.2-16.24,31.62-24.37,52.26-24.37c19.2,0,35.24,7.05,48.11,21.14C605.04,128.93,611.32,145.58,611.32,165.19z M574.86,155.85 c0-8.48-3.35-15.99-10.04-22.53c-6.7-6.53-14.23-9.81-22.6-9.81c-9.4,0-17.75,3.78-25.06,11.34 c-7.31,7.56-10.96,16.03-10.96,25.44c0,2.14,1.84,3.21,5.52,3.21c15.11,0,33.2-1.53,54.24-4.59 C571.89,158.09,574.86,157.07,574.86,155.85z"></path> <path class="st2" d="M709.13,103.6c0,11.23-0.77,21.45-2.3,30.64c-0.31,2.36-1.33,3.52-3.06,3.52c-2.14,0-5.39-0.23-9.73-0.68 c-4.35-0.46-7.63-0.69-9.88-0.69c-12.88,0-21.09,3.63-24.67,10.87c-2.15,4.39-3.22,13.54-3.22,27.43v16.85 c0,5.73,0.23,14.41,0.69,26.05c0.46,11.64,0.69,20.33,0.69,26.05c0,2.75-1.17,4.13-3.52,4.13c-3.17,0-7.98-0.05-14.41-0.15 c-6.43-0.11-11.24-0.16-14.4-0.16c-2.35,0-3.53-1.27-3.53-3.82c0-8.28,0.13-20.75,0.39-37.4c0.25-16.65,0.38-29.16,0.38-37.54 c0-25.23-2.35-45.51-7.05-60.83c-0.2-0.81-0.31-1.43-0.31-1.84c0-1.22,0.67-2.1,1.99-2.61c3.78-0.41,9.09-1.02,15.95-1.84 c11.03-2.05,16.13-3.06,15.31-3.06c1.64,0,2.71,3.01,3.22,9.03c0.51,6.04,1.42,9.05,2.76,9.05c0.2,0,0.46-0.1,0.77-0.31 c4.18-2.65,8.37-5.31,12.56-7.96c4.6-2.76,9.29-4.8,14.1-6.13c3.98-1.23,9.08-1.84,15.32-1.84 C705.15,100.38,709.13,101.45,709.13,103.6z"></path> <path class="st2" d="M856.58,108.5c0,7.46-0.31,18.72-0.92,33.78c-0.62,15.07-0.92,26.38-0.92,33.94c0,7.45,0.23,18.61,0.7,33.48 c0.46,14.86,0.68,26.03,0.68,33.48c0,2.05-0.97,3.37-2.91,3.99c-0.82,0.21-11.18,0.3-31.1,0.3c-1.23,0-1.97-3.82-2.22-11.49 c-0.26-7.66-0.85-11.49-1.76-11.49c-0.52,0-1.28,0.46-2.3,1.38c-17.06,14.81-33.92,22.22-50.56,22.22 c-22.58,0-37.49-8.17-44.75-24.52c-4.5-10.11-6.74-28.3-6.74-54.55c0-23.7,1.89-43.77,5.66-60.22c0.92-3.98,2.61-5.97,5.06-5.97 c2.96,0,7.41,0.05,13.33,0.15c5.93,0.1,10.37,0.15,13.34,0.15c2.04,0,3.06,1.13,3.06,3.37c0,3.99-0.66,10.63-2,19.92 c-1.43,9.91-2.2,16.91-2.3,20.99c-0.3,6.13-0.46,12.88-0.46,20.23c0,17.88,1.27,29.88,3.83,36c4.39,11.04,14.14,16.55,29.27,16.55 c6.43,0,14.04-3.17,22.83-9.5c9.29-6.64,14.09-13.03,14.4-19.16c0.51-7.66,0.76-34.62,0.76-80.9c0-5,2.09-7.51,6.28-7.51h25.28 C855.1,103.14,856.58,104.93,856.58,108.5z"></path> <path class="st2" d="M1023.79,33.72c0,13.18-0.58,32.92-1.76,59.22c-1.17,26.3-1.76,46-1.76,59.07c0,40.36,0.87,70.89,2.6,91.64 l0.15,1.99c0.1,1.03-1.28,1.68-4.14,1.99c-1.94,0.2-4.7,0.2-8.28,0c-4.29-0.31-6.28-0.46-5.98-0.46c-1.54,0-3.79,0.15-6.75,0.46 c-2.96,0.3-5.21,0.46-6.74,0.46c-1.43,0-2.27-3.55-2.53-10.65c-0.26-7.1-0.64-10.7-1.15-10.8c-0.61,0.31-1.37,0.97-2.3,1.99 c-13.99,15.12-30.08,22.68-48.26,22.68c-20.64,0-37.6-7.86-50.88-23.6c-12.56-14.81-18.85-32.69-18.85-53.63 c0-21.76,6.34-40.04,19-54.85c13.28-15.53,30.6-23.29,51.95-23.29c12.87,0,24.1,3.78,33.72,11.34c4.38,3.78,8.73,7.61,13.03,11.49 c0.82-0.31,1.22-1.02,1.22-2.15V66.97c0-3.37-0.16-8.48-0.46-15.32c-0.31-6.85-0.47-12.01-0.47-15.48c0-2.45,0.82-3.68,2.46-3.68 c3.78,0,9.4-0.33,16.85-1c7.46-0.67,13.03-1,16.71-1C1022.92,30.5,1023.79,31.58,1023.79,33.72z M985.48,173.16 c0-12.26-3.77-23.03-11.33-32.33c-8.07-9.91-18.08-14.86-30.03-14.86c-12.57,0-22.94,4.9-31.11,14.71 c-7.76,9.19-11.64,20.23-11.64,33.09c0,12.25,4.03,22.94,12.1,32.03c8.27,9.6,18.5,14.4,30.65,14.4 c12.25,0,22.37-4.86,30.34-14.55C981.81,196.55,985.48,185.73,985.48,173.16z"></path> <path class="st2" d="M1075.14,109.94c0,7.87-0.48,19.74-1.45,35.62c-0.98,15.89-1.46,27.81-1.46,35.78 c0,7.46,0.16,18.62,0.46,33.49c0.31,14.86,0.46,25.97,0.46,33.33c0,2.14-0.92,3.22-2.75,3.22h-29.88c-2.15,0-3.22-2.09-3.22-6.29 c0-7.05,0.17-17.64,0.54-31.79c0.35-14.15,0.53-24.8,0.53-31.95c0-7.96-0.59-19.92-1.76-35.85c-1.18-15.93-1.76-27.88-1.76-35.85 c0-1.74,1.08-2.61,3.22-2.61c1.84,0,4.67,0.25,8.5,0.77c3.84,0.51,6.72,0.77,8.67,0.77c1.94,0,4.83-0.26,8.65-0.77 c3.83-0.51,6.72-0.77,8.66-0.77C1074.27,107.03,1075.14,108,1075.14,109.94z"></path> <g> <g> <path class="st3" d="M391.86,143.41c7.67,8.79,11.5,19.41,11.5,31.87c0,5.33-0.78,10.33-2.22,15.04l29.35,14.19 c3.46-9.08,5.2-18.92,5.2-29.54c0-21.24-7.05-39.33-21.15-54.24c-12.33-13.2-27.15-20.7-44.48-22.53v32.09 C378.55,132.01,385.83,136.37,391.86,143.41z"></path> <path class="st4" d="M322.4,192.28c-1.9-5.27-2.86-10.93-2.86-17c0-12.46,3.83-23.14,11.49-32.03 c6.08-6.92,13.35-11.24,21.81-12.94v-32.1c-17.37,1.85-32.25,9.34-44.64,22.52c-14,15.01-21,33.2-21,54.55 c0,11.28,2.01,21.65,5.92,31.16L322.4,192.28z"></path> <path class="st5" d="M393.12,205.56c-0.42,0.53-0.81,1.08-1.26,1.59c-8.07,9.51-18.18,14.26-30.34,14.26 c-12.05,0-22.16-4.75-30.34-14.26l-29.69,14.36c2.04,2.86,4.22,5.66,6.71,8.32c14.3,15.53,32.08,23.29,53.32,23.29 c21.15,0,38.87-7.82,53.18-23.44c2.92-3.16,5.47-6.49,7.78-9.92L393.12,205.56z"></path> </g> </g> <path class="st4" d="M1076.13,305.6c0,12.56-7,18.85-20.99,18.85c-14.2,0-21.3-6.28-21.3-18.85c0-5.62,2.2-10.27,6.59-13.94 c4.08-3.47,8.99-5.21,14.71-5.21c5.72,0,10.65,1.79,14.79,5.36C1074.07,295.39,1076.13,299.99,1076.13,305.6z"></path> <g> <g> <path class="st6" d="M171.28,290.49c-0.51-0.64-0.99-1.24-1.45-1.79c-1.11-1.16-2.35-2.11-3.74-2.88 c-1.38-0.76-2.83-1.37-4.33-1.84c-1.5-0.46-3.05-0.78-4.64-0.97c-1.59-0.18-3.15-0.28-4.67-0.28c-0.37,0-1,0.01-1.9,0.04 c-0.9,0.03-1.95,0.13-3.15,0.31c-1.2,0.19-2.47,0.48-3.81,0.88c-1.34,0.39-2.61,0.94-3.81,1.64c-0.69,0.42-1.36,0.92-2.01,1.5 c-0.65,0.58-1.18,1.25-1.59,1.99c-0.14,0.23-0.32,0.66-0.55,1.29c-0.23,0.63-0.35,1.36-0.35,2.2c0,0.89,0.15,1.63,0.45,2.23 c0.3,0.61,0.66,1.12,1.07,1.53c0.42,0.42,0.84,0.75,1.28,0.98c0.44,0.23,0.77,0.42,1,0.56c1.01,0.51,2.21,0.88,3.57,1.12 c1.36,0.23,3.2,0.51,5.5,0.84c5.31,0.79,9.71,1.43,13.22,1.94c3.51,0.51,6.34,1.22,8.52,2.14c2.21,0.92,3.98,2.28,5.3,4.05 c1.31,1.78,1.97,3.89,1.97,6.33c0,0.69-0.13,1.71-0.38,3.04c-0.25,1.34-0.89,2.75-1.9,4.22c-0.79,1.11-1.78,2.17-2.98,3.19 c-1.2,1.02-2.69,1.93-4.46,2.74c-1.78,0.81-3.83,1.44-6.16,1.9c-2.33,0.46-5,0.69-8,0.69c-0.69,0-1.38-0.01-2.08-0.04 c-0.69-0.02-1.41-0.05-2.15-0.1c-0.51-0.05-1.46-0.14-2.87-0.28c-1.41-0.14-3.01-0.44-4.81-0.9c-1.8-0.46-3.66-1.17-5.57-2.11 c-1.92-0.95-3.64-2.22-5.16-3.84c-0.92-0.97-1.68-1.96-2.28-2.97c-0.6-1.02-1.22-2.1-1.87-3.26l5.12-1.94 c0.14,0.41,0.35,0.91,0.62,1.49c0.28,0.58,0.63,1.21,1.07,1.9c0.44,0.69,0.99,1.4,1.66,2.11c0.67,0.72,1.49,1.4,2.46,2.04 c1.43,0.92,3.39,1.75,5.89,2.49c2.49,0.74,5.7,1.11,9.62,1.11c0.46,0,1.2-0.01,2.21-0.04c1.01-0.02,2.17-0.14,3.46-0.34 c1.29-0.21,2.67-0.53,4.12-0.97c1.45-0.44,2.85-1.05,4.19-1.84c1.48-0.92,2.71-2.04,3.7-3.36c0.99-1.31,1.49-2.87,1.49-4.67 c0-1.43-0.28-2.55-0.83-3.36c-0.55-0.8-1.04-1.39-1.45-1.77c-0.78-0.64-1.83-1.18-3.15-1.62c-1.32-0.44-2.7-0.81-4.15-1.11 c-1.45-0.3-2.89-0.54-4.29-0.73c-1.41-0.18-2.55-0.35-3.43-0.49c-1.48-0.23-2.95-0.42-4.43-0.59c-1.48-0.16-2.96-0.36-4.43-0.59 c-1.57-0.23-3.24-0.51-5.02-0.83c-1.78-0.32-3.38-0.85-4.81-1.59c-0.42-0.19-0.96-0.5-1.63-0.94c-0.67-0.44-1.32-1.03-1.94-1.76 c-0.62-0.74-1.16-1.63-1.59-2.67c-0.44-1.04-0.66-2.27-0.66-3.7c0-2.36,0.67-4.48,2.01-6.37c1.34-1.89,3-3.39,4.98-4.5 c2.22-1.2,4.73-2.05,7.55-2.56c2.81-0.51,5.47-0.76,7.96-0.76c0.74,0,1.83,0.05,3.29,0.13c1.45,0.09,3.08,0.33,4.88,0.71 c1.8,0.38,3.69,0.97,5.68,1.77c1.98,0.8,3.9,1.96,5.75,3.48c0.88,0.74,1.58,1.4,2.11,1.98c0.53,0.58,0.93,1.05,1.21,1.42 L171.28,290.49z"></path> <path class="st6" d="M230.61,294.17c-0.23-0.37-0.67-1.07-1.32-2.11c-0.65-1.04-1.48-2.06-2.49-3.08 c-1.43-1.43-2.96-2.56-4.57-3.39c-1.62-0.83-3.18-1.45-4.71-1.87c-1.52-0.41-2.9-0.66-4.12-0.76c-1.22-0.09-2.13-0.13-2.73-0.13 c-0.69,0-1.66,0.06-2.91,0.17c-1.25,0.12-2.64,0.39-4.19,0.83c-1.55,0.44-3.15,1.1-4.81,1.97c-1.66,0.88-3.23,2.08-4.71,3.6 c-1.34,1.38-2.4,2.84-3.18,4.36c-0.79,1.52-1.37,2.97-1.76,4.36c-0.39,1.38-0.65,2.64-0.76,3.77c-0.11,1.13-0.17,2.02-0.17,2.66 c0,0.69,0.06,1.59,0.17,2.7c0.12,1.11,0.38,2.34,0.8,3.71c0.41,1.36,1.03,2.78,1.83,4.26c0.81,1.48,1.9,2.91,3.29,4.29 c1.48,1.48,3.05,2.64,4.71,3.5c1.66,0.85,3.25,1.49,4.78,1.9c1.52,0.42,2.9,0.67,4.12,0.76c1.22,0.09,2.18,0.14,2.87,0.14 c0.83,0,1.93-0.06,3.29-0.18c1.36-0.11,2.86-0.44,4.5-0.97c1.64-0.53,3.32-1.3,5.05-2.32c1.73-1.01,3.4-2.42,5.02-4.22 c0.51-0.6,0.97-1.17,1.39-1.73c0.41-0.56,1.01-1.46,1.8-2.7l4.22,2.01c-0.6,1.02-1.45,2.32-2.56,3.91 c-1.11,1.59-2.82,3.24-5.12,4.95c-0.79,0.55-1.72,1.15-2.8,1.8c-1.08,0.64-2.35,1.24-3.81,1.8c-1.45,0.55-3.12,1.02-4.99,1.39 c-1.87,0.37-3.96,0.55-6.27,0.55c-2.21,0-4.21-0.15-5.99-0.45c-1.78-0.3-3.36-0.69-4.74-1.18c-1.38-0.48-2.61-1.03-3.67-1.62 c-1.06-0.6-1.96-1.18-2.7-1.73c-3.32-2.49-5.88-5.55-7.68-9.18c-1.8-3.62-2.7-7.53-2.7-11.73c0-0.74,0.05-1.7,0.14-2.88 c0.09-1.18,0.33-2.48,0.73-3.91c0.39-1.43,0.96-2.93,1.7-4.5c0.74-1.56,1.78-3.14,3.12-4.71c1.85-2.26,3.85-4.04,6.02-5.33 c2.17-1.29,4.26-2.26,6.26-2.91c2.01-0.65,3.87-1.06,5.57-1.25c1.71-0.18,3.05-0.28,4.02-0.28c0.74,0,1.82,0.06,3.25,0.17 c1.43,0.12,3.02,0.42,4.78,0.9c1.75,0.48,3.6,1.19,5.54,2.11c1.94,0.92,3.78,2.19,5.54,3.81c1.11,1.02,2.04,2.03,2.8,3.04 c0.76,1.02,1.53,2.14,2.32,3.39L230.61,294.17z"></path> <path class="st6" d="M245.84,300.88h41.05v-20.91h4.78v48.88h-4.78v-23.88h-41.05v23.88h-4.78v-48.88h4.78V300.88z"></path> <path class="st6" d="M332.76,278.76c2.01,0.21,4.21,0.71,6.61,1.49c2.4,0.78,4.81,2,7.24,3.64c2.42,1.64,4.55,3.91,6.4,6.82 c0.88,1.38,1.58,2.76,2.11,4.12c0.53,1.36,0.94,2.64,1.21,3.84c0.27,1.2,0.45,2.28,0.52,3.26c0.07,0.97,0.1,1.75,0.1,2.35 c0,0.69-0.06,1.63-0.17,2.8c-0.12,1.18-0.36,2.47-0.73,3.88c-0.37,1.4-0.94,2.91-1.7,4.5c-0.76,1.59-1.76,3.15-3.01,4.67 c-1.99,2.35-4.14,4.21-6.47,5.57c-2.33,1.36-4.59,2.37-6.79,3.01c-2.19,0.65-4.2,1.05-6.02,1.21c-1.83,0.16-3.22,0.24-4.19,0.24 c-0.65,0-1.56-0.04-2.77-0.11c-1.2-0.07-2.55-0.24-4.05-0.52c-1.5-0.28-3.09-0.7-4.78-1.28c-1.68-0.58-3.37-1.35-5.05-2.32 c-1.69-0.97-3.29-2.19-4.81-3.67c-1.52-1.48-2.86-3.26-4.01-5.33c-0.74-1.34-1.33-2.64-1.76-3.91 c-0.44-1.27-0.76-2.45-0.97-3.53c-0.21-1.08-0.33-2.08-0.38-2.98c-0.05-0.89-0.07-1.62-0.07-2.18c0-0.92,0.11-2.27,0.31-4.05 c0.21-1.78,0.77-3.77,1.7-5.99c1.15-2.72,2.68-5.09,4.57-7.1c1.89-2.01,4.03-3.65,6.4-4.95c2.38-1.29,4.94-2.25,7.69-2.88 c2.75-0.62,5.53-0.93,8.34-0.93C329.24,278.45,330.75,278.55,332.76,278.76z M324.42,282.71c-1.02,0.12-2.16,0.32-3.43,0.63 c-1.27,0.3-2.62,0.75-4.05,1.36c-1.43,0.6-2.82,1.39-4.15,2.37c-0.69,0.51-1.52,1.25-2.49,2.22c-0.97,0.97-1.89,2.18-2.77,3.62 c-0.88,1.44-1.63,3.12-2.25,5.04c-0.62,1.93-0.93,4.12-0.93,6.58c0,0.65,0.08,1.76,0.24,3.34c0.16,1.58,0.61,3.27,1.35,5.08 c0.83,2.09,1.87,3.86,3.12,5.32c1.24,1.46,2.6,2.68,4.05,3.65c1.45,0.97,2.95,1.74,4.5,2.29c1.55,0.55,3,0.97,4.36,1.25 c1.36,0.28,2.58,0.45,3.67,0.52c1.08,0.07,1.93,0.1,2.53,0.1c0.6,0,1.47-0.04,2.6-0.1c1.13-0.07,2.39-0.26,3.77-0.56 c1.39-0.3,2.86-0.78,4.43-1.43c1.57-0.65,3.12-1.53,4.64-2.64c1.89-1.43,3.38-3.01,4.46-4.73c1.08-1.71,1.89-3.38,2.42-5.01 c0.53-1.62,0.85-3.11,0.97-4.45c0.12-1.34,0.17-2.41,0.17-3.2c0-0.56-0.02-1.26-0.07-2.12c-0.04-0.86-0.21-1.91-0.48-3.17 c-0.19-0.69-0.46-1.58-0.83-2.64c-0.37-1.07-0.92-2.22-1.66-3.44c-0.74-1.23-1.69-2.45-2.84-3.65c-1.15-1.2-2.58-2.27-4.29-3.2 c-0.6-0.32-1.37-0.68-2.32-1.08c-0.95-0.39-2.04-0.76-3.29-1.11c-1.24-0.35-2.63-0.62-4.16-0.8c-1.52-0.19-3.18-0.25-4.98-0.21 C326.2,282.53,325.43,282.59,324.42,282.71z"></path> <path class="st6" d="M395.9,278.76c2.01,0.21,4.21,0.71,6.61,1.49c2.4,0.78,4.81,2,7.24,3.64c2.42,1.64,4.56,3.91,6.4,6.82 c0.87,1.38,1.58,2.76,2.11,4.12c0.53,1.36,0.93,2.64,1.21,3.84c0.28,1.2,0.45,2.28,0.52,3.26c0.07,0.97,0.11,1.75,0.11,2.35 c0,0.69-0.06,1.63-0.17,2.8c-0.12,1.18-0.36,2.47-0.73,3.88c-0.37,1.4-0.93,2.91-1.69,4.5c-0.76,1.59-1.77,3.15-3.01,4.67 c-1.99,2.35-4.15,4.21-6.48,5.57c-2.33,1.36-4.59,2.37-6.78,3.01c-2.19,0.65-4.2,1.05-6.03,1.21c-1.82,0.16-3.22,0.24-4.19,0.24 c-0.65,0-1.57-0.04-2.77-0.11c-1.2-0.07-2.55-0.24-4.05-0.52c-1.5-0.28-3.1-0.7-4.78-1.28c-1.68-0.58-3.37-1.35-5.05-2.32 c-1.69-0.97-3.29-2.19-4.81-3.67c-1.52-1.48-2.86-3.26-4.01-5.33c-0.74-1.34-1.33-2.64-1.76-3.91 c-0.44-1.27-0.76-2.45-0.97-3.53c-0.21-1.08-0.34-2.08-0.38-2.98c-0.04-0.89-0.07-1.62-0.07-2.18c0-0.92,0.1-2.27,0.31-4.05 c0.21-1.78,0.78-3.77,1.7-5.99c1.15-2.72,2.68-5.09,4.57-7.1c1.89-2.01,4.03-3.65,6.4-4.95c2.38-1.29,4.94-2.25,7.69-2.88 c2.74-0.62,5.53-0.93,8.34-0.93C392.38,278.45,393.9,278.55,395.9,278.76z M387.56,282.71c-1.01,0.12-2.16,0.32-3.43,0.63 c-1.27,0.3-2.62,0.75-4.05,1.36c-1.43,0.6-2.82,1.39-4.16,2.37c-0.69,0.51-1.52,1.25-2.49,2.22c-0.97,0.97-1.89,2.18-2.77,3.62 c-0.88,1.44-1.63,3.12-2.25,5.04c-0.63,1.93-0.94,4.12-0.94,6.58c0,0.65,0.08,1.76,0.24,3.34c0.16,1.58,0.61,3.27,1.35,5.08 c0.83,2.09,1.87,3.86,3.12,5.32c1.25,1.46,2.6,2.68,4.05,3.65c1.45,0.97,2.95,1.74,4.5,2.29c1.55,0.55,3,0.97,4.36,1.25 c1.36,0.28,2.58,0.45,3.67,0.52c1.08,0.07,1.92,0.1,2.53,0.1c0.6,0,1.47-0.04,2.6-0.1c1.13-0.07,2.38-0.26,3.77-0.56 c1.38-0.3,2.86-0.78,4.43-1.43c1.57-0.65,3.11-1.53,4.64-2.64c1.89-1.43,3.38-3.01,4.47-4.73c1.08-1.71,1.89-3.38,2.42-5.01 c0.53-1.62,0.85-3.11,0.97-4.45c0.12-1.34,0.18-2.41,0.18-3.2c0-0.56-0.03-1.26-0.07-2.12c-0.04-0.86-0.2-1.91-0.48-3.17 c-0.18-0.69-0.46-1.58-0.83-2.64c-0.37-1.07-0.93-2.22-1.66-3.44c-0.74-1.23-1.69-2.45-2.84-3.65c-1.16-1.2-2.59-2.27-4.29-3.2 c-0.61-0.32-1.38-0.68-2.32-1.08c-0.95-0.39-2.04-0.76-3.29-1.11c-1.25-0.35-2.63-0.62-4.16-0.8c-1.52-0.19-3.18-0.25-4.98-0.21 C389.33,282.53,388.57,282.59,387.56,282.71z"></path> <path class="st6" d="M432.49,324.77h35.58v4.08h-40.43v-48.88h4.85V324.77z"></path> <path class="st6" d="M526.96,278.76c2.01,0.21,4.21,0.71,6.61,1.49c2.4,0.78,4.81,2,7.23,3.64c2.42,1.64,4.56,3.91,6.4,6.82 c0.88,1.38,1.58,2.76,2.12,4.12c0.53,1.36,0.93,2.64,1.21,3.84c0.28,1.2,0.45,2.28,0.52,3.26c0.07,0.97,0.11,1.75,0.11,2.35 c0,0.69-0.06,1.63-0.17,2.8c-0.12,1.18-0.36,2.47-0.73,3.88c-0.37,1.4-0.93,2.91-1.69,4.5c-0.76,1.59-1.77,3.15-3.01,4.67 c-1.99,2.35-4.15,4.21-6.48,5.57c-2.33,1.36-4.59,2.37-6.78,3.01c-2.19,0.65-4.2,1.05-6.03,1.21c-1.83,0.16-3.22,0.24-4.19,0.24 c-0.65,0-1.57-0.04-2.77-0.11c-1.2-0.07-2.55-0.24-4.05-0.52c-1.5-0.28-3.1-0.7-4.78-1.28c-1.68-0.58-3.37-1.35-5.05-2.32 c-1.69-0.97-3.29-2.19-4.81-3.67c-1.52-1.48-2.86-3.26-4.01-5.33c-0.74-1.34-1.33-2.64-1.77-3.91 c-0.44-1.27-0.76-2.45-0.97-3.53c-0.21-1.08-0.33-2.08-0.38-2.98c-0.04-0.89-0.07-1.62-0.07-2.18c0-0.92,0.1-2.27,0.31-4.05 c0.21-1.78,0.78-3.77,1.7-5.99c1.15-2.72,2.68-5.09,4.57-7.1c1.89-2.01,4.02-3.65,6.4-4.95c2.38-1.29,4.94-2.25,7.69-2.88 c2.74-0.62,5.53-0.93,8.34-0.93C523.44,278.45,524.96,278.55,526.96,278.76z M518.62,282.71c-1.01,0.12-2.16,0.32-3.43,0.63 c-1.27,0.3-2.62,0.75-4.05,1.36c-1.43,0.6-2.82,1.39-4.16,2.37c-0.69,0.51-1.52,1.25-2.49,2.22c-0.97,0.97-1.89,2.18-2.77,3.62 c-0.88,1.44-1.63,3.12-2.25,5.04c-0.63,1.93-0.94,4.12-0.94,6.58c0,0.65,0.08,1.76,0.24,3.34c0.16,1.58,0.61,3.27,1.35,5.08 c0.83,2.09,1.87,3.86,3.12,5.32c1.25,1.46,2.6,2.68,4.05,3.65c1.45,0.97,2.95,1.74,4.5,2.29c1.55,0.55,3,0.97,4.36,1.25 c1.36,0.28,2.58,0.45,3.67,0.52c1.08,0.07,1.93,0.1,2.53,0.1c0.6,0,1.47-0.04,2.6-0.1c1.13-0.07,2.38-0.26,3.77-0.56 c1.39-0.3,2.86-0.78,4.43-1.43c1.57-0.65,3.11-1.53,4.64-2.64c1.89-1.43,3.38-3.01,4.47-4.73c1.08-1.71,1.89-3.38,2.42-5.01 c0.53-1.62,0.85-3.11,0.97-4.45c0.12-1.34,0.18-2.41,0.18-3.2c0-0.56-0.03-1.26-0.07-2.12c-0.05-0.86-0.21-1.91-0.48-3.17 c-0.18-0.69-0.46-1.58-0.83-2.64c-0.37-1.07-0.93-2.22-1.66-3.44c-0.74-1.23-1.69-2.45-2.84-3.65c-1.16-1.2-2.59-2.27-4.29-3.2 c-0.61-0.32-1.38-0.68-2.32-1.08c-0.95-0.39-2.04-0.76-3.29-1.11c-1.25-0.35-2.63-0.62-4.16-0.8c-1.52-0.19-3.18-0.25-4.99-0.21 C520.39,282.53,519.63,282.59,518.62,282.71z"></path> <path class="st6" d="M603.7,279.97v4.01h-40.22v17.38h36.01v4.22h-36.01v23.26h-4.78v-48.88H603.7z"></path> <path class="st6" d="M678.41,280.04v4.01h-42.02v17.17h38.84v4.09h-38.84v19.46h44.03v4.08h-48.81v-48.81H678.41z"></path> <path class="st6" d="M740.3,328.85h-4.36l-41.89-42.65v42.65h-4.36v-48.88h4.36l41.89,42.86v-42.86h4.36V328.85z"></path> <path class="st6" d="M796.1,294.03c-0.37-0.74-0.7-1.33-1-1.77c-0.3-0.44-0.71-0.98-1.21-1.63c-1.11-1.38-2.38-2.57-3.81-3.56 c-1.43-0.99-2.95-1.8-4.54-2.42c-1.59-0.63-3.26-1.07-4.99-1.35c-1.73-0.28-3.45-0.42-5.16-0.42c-0.78,0-1.98,0.07-3.6,0.21 c-1.62,0.13-3.42,0.6-5.4,1.38c-2.13,0.83-4.02,1.91-5.68,3.22c-1.66,1.32-3.06,2.84-4.19,4.57c-1.13,1.73-2,3.62-2.59,5.68 c-0.61,2.05-0.9,4.21-0.9,6.47c0,0.55,0.04,1.35,0.11,2.39c0.07,1.04,0.26,2.18,0.59,3.43c0.32,1.25,0.79,2.58,1.42,3.98 c0.62,1.41,1.49,2.76,2.6,4.05c0.64,0.79,1.49,1.62,2.53,2.5c1.04,0.87,2.31,1.69,3.81,2.46c1.5,0.76,3.23,1.4,5.19,1.9 c1.96,0.51,4.19,0.76,6.68,0.76c0.65,0,1.6-0.04,2.88-0.14c1.27-0.09,2.71-0.37,4.33-0.83c1.43-0.42,2.84-0.99,4.22-1.73 c1.39-0.74,2.67-1.6,3.84-2.6c1.18-0.99,2.22-2.1,3.12-3.32c0.9-1.22,1.63-2.57,2.18-4.05c0.46-1.25,0.75-2.4,0.87-3.46 c0.11-1.06,0.2-1.82,0.24-2.28h-25.96v-4.09h30.19v25.48h-4.22v-9.94c-0.74,1.29-1.44,2.32-2.11,3.11 c-0.67,0.78-1.23,1.38-1.69,1.79c-0.65,0.6-1.52,1.27-2.63,2c-1.1,0.74-2.42,1.44-3.94,2.11c-1.52,0.67-3.27,1.22-5.23,1.66 c-1.96,0.44-4.12,0.66-6.47,0.66c-0.83,0-1.95-0.06-3.36-0.18c-1.41-0.11-3.08-0.43-5.02-0.93c-0.83-0.19-1.91-0.51-3.22-0.97 c-1.31-0.46-2.71-1.14-4.18-2.04c-1.48-0.9-2.97-2.07-4.47-3.5c-1.5-1.43-2.85-3.21-4.05-5.33c-0.28-0.51-0.61-1.17-1-1.97 c-0.39-0.81-0.75-1.74-1.07-2.8c-0.32-1.06-0.6-2.26-0.83-3.6c-0.24-1.34-0.35-2.79-0.35-4.36c0-0.74,0.05-1.73,0.14-2.98 c0.09-1.25,0.35-2.63,0.76-4.15c0.42-1.52,1.01-3.12,1.8-4.78c0.78-1.66,1.87-3.3,3.26-4.92c0.78-0.92,1.8-1.92,3.04-3.01 c1.25-1.09,2.77-2.09,4.57-3.01c1.8-0.92,3.88-1.7,6.23-2.32c2.36-0.62,5.03-0.93,8.04-0.93c0.6,0,1.6,0.05,3.01,0.14 c1.41,0.09,3,0.34,4.78,0.73c1.78,0.39,3.64,0.99,5.61,1.8c1.96,0.81,3.82,1.93,5.57,3.36c1.66,1.34,2.95,2.67,3.88,3.98 c0.92,1.32,1.59,2.3,2.01,2.94L796.1,294.03z"></path> <path class="st6" d="M817.98,324.77h35.58v4.08h-40.43v-48.88h4.85V324.77z"></path> <path class="st6" d="M862.98,279.97v48.88h-4.77v-48.88H862.98z"></path> <path class="st6" d="M913.66,290.49c-0.51-0.64-0.99-1.24-1.46-1.79c-1.1-1.16-2.35-2.11-3.74-2.88 c-1.38-0.76-2.83-1.37-4.33-1.84c-1.5-0.46-3.05-0.78-4.64-0.97c-1.59-0.18-3.15-0.28-4.67-0.28c-0.37,0-1,0.01-1.9,0.04 c-0.9,0.03-1.95,0.13-3.15,0.31c-1.2,0.19-2.47,0.48-3.81,0.88c-1.34,0.39-2.6,0.94-3.81,1.64c-0.69,0.42-1.36,0.92-2.01,1.5 c-0.65,0.58-1.17,1.25-1.59,1.99c-0.14,0.23-0.32,0.66-0.55,1.29c-0.23,0.63-0.35,1.36-0.35,2.2c0,0.89,0.15,1.63,0.45,2.23 c0.3,0.61,0.66,1.12,1.08,1.53c0.41,0.42,0.84,0.75,1.28,0.98c0.44,0.23,0.77,0.42,1,0.56c1.01,0.51,2.21,0.88,3.57,1.12 c1.36,0.23,3.2,0.51,5.51,0.84c5.31,0.79,9.71,1.43,13.22,1.94c3.51,0.51,6.34,1.22,8.52,2.14c2.21,0.92,3.98,2.28,5.29,4.05 c1.32,1.78,1.97,3.89,1.97,6.33c0,0.69-0.13,1.71-0.38,3.04c-0.26,1.34-0.89,2.75-1.9,4.22c-0.79,1.11-1.77,2.17-2.98,3.19 c-1.2,1.02-2.69,1.93-4.46,2.74c-1.78,0.81-3.84,1.44-6.16,1.9c-2.33,0.46-5,0.69-8,0.69c-0.69,0-1.38-0.01-2.08-0.04 c-0.69-0.02-1.41-0.05-2.14-0.1c-0.51-0.05-1.47-0.14-2.88-0.28c-1.41-0.14-3.01-0.44-4.81-0.9c-1.8-0.46-3.66-1.17-5.57-2.11 c-1.92-0.95-3.64-2.22-5.16-3.84c-0.92-0.97-1.68-1.96-2.29-2.97c-0.6-1.02-1.22-2.1-1.87-3.26l5.12-1.94 c0.14,0.41,0.35,0.91,0.62,1.49c0.28,0.58,0.63,1.21,1.08,1.9c0.43,0.69,0.99,1.4,1.66,2.11c0.67,0.72,1.49,1.4,2.46,2.04 c1.43,0.92,3.39,1.75,5.89,2.49c2.49,0.74,5.7,1.11,9.63,1.11c0.46,0,1.2-0.01,2.21-0.04c1.01-0.02,2.17-0.14,3.46-0.34 c1.29-0.21,2.67-0.53,4.12-0.97c1.46-0.44,2.85-1.05,4.19-1.84c1.47-0.92,2.71-2.04,3.7-3.36c0.99-1.31,1.49-2.87,1.49-4.67 c0-1.43-0.27-2.55-0.83-3.36c-0.55-0.8-1.04-1.39-1.46-1.77c-0.78-0.64-1.83-1.18-3.15-1.62c-1.32-0.44-2.71-0.81-4.16-1.11 c-1.45-0.3-2.89-0.54-4.29-0.73c-1.41-0.18-2.55-0.35-3.43-0.49c-1.47-0.23-2.95-0.42-4.43-0.59c-1.48-0.16-2.96-0.36-4.43-0.59 c-1.57-0.23-3.24-0.51-5.02-0.83c-1.78-0.32-3.38-0.85-4.81-1.59c-0.42-0.19-0.96-0.5-1.63-0.94c-0.67-0.44-1.32-1.03-1.94-1.76 c-0.63-0.74-1.16-1.63-1.59-2.67c-0.44-1.04-0.66-2.27-0.66-3.7c0-2.36,0.67-4.48,2.01-6.37c1.34-1.89,3-3.39,4.98-4.5 c2.22-1.2,4.73-2.05,7.55-2.56c2.82-0.51,5.47-0.76,7.96-0.76c0.74,0,1.84,0.05,3.29,0.13c1.46,0.09,3.08,0.33,4.88,0.71 c1.8,0.38,3.69,0.97,5.68,1.77c1.98,0.8,3.9,1.96,5.74,3.48c0.88,0.74,1.58,1.4,2.11,1.98c0.53,0.58,0.93,1.05,1.21,1.42 L913.66,290.49z"></path> <path class="st6" d="M932.35,300.88h41.06v-20.91h4.78v48.88h-4.78v-23.88h-41.06v23.88h-4.78v-48.88h4.78V300.88z"></path> </g> </g> <g> <g> <path class="st3" d="M1186.42,146.95c7.67,8.79,11.5,19.41,11.5,31.87c0,5.32-0.78,10.33-2.22,15.04l29.35,14.19 c3.46-9.07,5.2-18.92,5.2-29.54c0-21.24-7.05-39.32-21.15-54.24c-12.33-13.2-27.15-20.7-44.48-22.53v32.09 C1173.12,135.54,1180.39,139.9,1186.42,146.95z"></path> <path class="st4" d="M1116.96,195.81c-1.9-5.27-2.86-10.93-2.86-17c0-12.46,3.83-23.14,11.49-32.03 c6.08-6.93,13.35-11.24,21.81-12.94v-32.1c-17.36,1.85-32.25,9.34-44.64,22.52c-14,15.01-21,33.2-21,54.55 c0,11.28,2.01,21.65,5.93,31.16L1116.96,195.81z"></path> <path class="st5" d="M1187.68,209.09c-0.42,0.53-0.81,1.07-1.26,1.59c-8.07,9.5-18.18,14.25-30.34,14.25 c-12.05,0-22.16-4.75-30.34-14.25l-29.69,14.36c2.04,2.86,4.22,5.65,6.71,8.32c14.3,15.52,32.08,23.29,53.32,23.29 c21.15,0,38.87-7.81,53.18-23.44c2.92-3.16,5.47-6.49,7.78-9.92L1187.68,209.09z"></path> </g> </g> </g> </g> <g id="Outline" class="st0"> <g class="st1"> <path class="st7" d="M185.95,181.09c0,20.64-6.54,38.57-19.61,53.79c-13.69,16.04-30.7,24.05-51.03,24.05 c-12.67,0-23.75-3.93-33.26-11.8c-4.28-3.98-8.58-8.02-12.87-12.1c-0.62,0.31-1.02,1.12-1.22,2.46 c-0.11,0.61-0.15,6.33-0.15,17.16l-0.16,67.87c0,3.27-1.17,4.91-3.52,4.91c-15.74,0-25.03-0.21-27.89-0.62 c-2.34-0.3-3.52-1.63-3.52-3.98c0-13.08,0.1-57.36,0.31-83.51c0.2-26.15,0.31-45.76,0.31-58.83c0-24-1.53-46.53-4.59-67.57 c-0.21-1.22-0.31-2.04-0.31-2.45c0-1.12,0.5-1.84,1.53-2.15c3.89-0.21,9.55-0.76,17.01-1.69c10.01-1.84,15.64-2.76,16.86-2.76 c1.74,0,2.86,3.06,3.37,9.19c0.31,4.09,0.56,8.12,0.77,12.11c0,0.82,0.3,1.63,0.91,2.45c0.71-0.41,1.53-1.12,2.46-2.14 c14.3-14.61,28.76-21.91,43.36-21.91c20.23,0,37.29,7.92,51.19,23.75C179.26,142.53,185.95,160.46,185.95,181.09z M150.09,180.48 c0-12.25-3.83-23.04-11.49-32.33c-8.07-9.91-18.13-14.86-30.18-14.86c-11.85,0-21.55,5.11-29.11,15.32 c-6.96,9.19-10.43,19.92-10.43,32.18c0,12.46,3.58,23.29,10.72,32.49c7.87,9.91,17.88,14.86,30.03,14.86 c11.65,0,21.45-5.16,29.42-15.47C146.41,203.06,150.09,192.33,150.09,180.48z"></path> <path class="st7" d="M286.06,103.6c0,11.23-0.77,21.45-2.3,30.64c-0.31,2.36-1.33,3.52-3.07,3.52c-2.14,0-5.38-0.23-9.73-0.68 c-4.34-0.46-7.63-0.69-9.88-0.69c-12.88,0-21.09,3.63-24.67,10.87c-2.14,4.39-3.22,13.54-3.22,27.43v16.85 c0,5.73,0.24,14.41,0.69,26.05c0.46,11.64,0.69,20.33,0.69,26.05c0,2.75-1.18,4.13-3.52,4.13c-3.17,0-7.97-0.05-14.41-0.15 c-6.44-0.11-11.24-0.16-14.41-0.16c-2.34,0-3.52-1.27-3.52-3.82c0-8.28,0.13-20.75,0.39-37.4c0.25-16.65,0.38-29.16,0.38-37.54 c0-25.23-2.36-45.51-7.05-60.83c-0.21-0.81-0.31-1.43-0.31-1.84c0-1.22,0.66-2.1,1.99-2.61c3.78-0.41,9.1-1.02,15.94-1.84 c11.04-2.05,16.14-3.06,15.33-3.06c1.63,0,2.71,3.01,3.22,9.03c0.51,6.04,1.43,9.05,2.76,9.05c0.2,0,0.46-0.1,0.76-0.31 c4.19-2.65,8.38-5.31,12.57-7.96c4.6-2.76,9.29-4.8,14.1-6.13c3.98-1.23,9.09-1.84,15.32-1.84 C282.07,100.38,286.06,101.45,286.06,103.6z"></path> <path class="st7" d="M611.32,165.19c0,7.56-3.27,12.62-9.8,15.17c-4.4,1.64-36.02,4.65-94.86,9.04c1.33,9,6.29,16.66,14.86,22.99 c8.17,6.03,16.96,9.04,26.36,9.04c16.13,0,30.95-5.21,44.43-15.63c1.64-1.32,3.27-2.65,4.9-3.98c0.82,0,1.35,0.1,1.62,0.3 c0.25,0.21,2.16,3.76,5.74,10.65c3.58,6.89,5.37,10.6,5.37,11.11c0,0.61-0.82,1.79-2.46,3.53c-15.02,15.94-34.26,23.9-57.76,23.9 c-23.71,0-42.6-7.07-56.7-21.22c-14.1-14.14-21.15-33.02-21.15-56.62c0-21.04,6.75-39.38,20.23-55.01 c14.2-16.24,31.62-24.37,52.26-24.37c19.2,0,35.24,7.05,48.11,21.14C605.04,128.93,611.32,145.58,611.32,165.19z M574.86,155.85 c0-8.48-3.35-15.99-10.04-22.53c-6.7-6.53-14.23-9.81-22.6-9.81c-9.4,0-17.75,3.78-25.06,11.34 c-7.31,7.56-10.96,16.03-10.96,25.44c0,2.14,1.84,3.21,5.52,3.21c15.11,0,33.2-1.53,54.24-4.59 C571.89,158.09,574.86,157.07,574.86,155.85z"></path> <path class="st7" d="M709.13,103.6c0,11.23-0.77,21.45-2.3,30.64c-0.31,2.36-1.33,3.52-3.06,3.52c-2.14,0-5.39-0.23-9.73-0.68 c-4.35-0.46-7.63-0.69-9.88-0.69c-12.88,0-21.09,3.63-24.67,10.87c-2.15,4.39-3.22,13.54-3.22,27.43v16.85 c0,5.73,0.23,14.41,0.69,26.05c0.46,11.64,0.69,20.33,0.69,26.05c0,2.75-1.17,4.13-3.52,4.13c-3.17,0-7.98-0.05-14.41-0.15 c-6.43-0.11-11.24-0.16-14.4-0.16c-2.35,0-3.53-1.27-3.53-3.82c0-8.28,0.13-20.75,0.39-37.4c0.25-16.65,0.38-29.16,0.38-37.54 c0-25.23-2.35-45.51-7.05-60.83c-0.2-0.81-0.31-1.43-0.31-1.84c0-1.22,0.67-2.1,1.99-2.61c3.78-0.41,9.09-1.02,15.95-1.84 c11.03-2.05,16.13-3.06,15.31-3.06c1.64,0,2.71,3.01,3.22,9.03c0.51,6.04,1.42,9.05,2.76,9.05c0.2,0,0.46-0.1,0.77-0.31 c4.18-2.65,8.37-5.31,12.56-7.96c4.6-2.76,9.29-4.8,14.1-6.13c3.98-1.23,9.08-1.84,15.32-1.84 C705.15,100.38,709.13,101.45,709.13,103.6z"></path> <path class="st7" d="M856.58,108.5c0,7.46-0.31,18.72-0.92,33.78c-0.62,15.07-0.92,26.38-0.92,33.94c0,7.45,0.23,18.61,0.7,33.48 c0.46,14.86,0.68,26.03,0.68,33.48c0,2.05-0.97,3.37-2.91,3.99c-0.82,0.21-11.18,0.3-31.1,0.3c-1.23,0-1.97-3.82-2.22-11.49 c-0.26-7.66-0.85-11.49-1.76-11.49c-0.52,0-1.28,0.46-2.3,1.38c-17.06,14.81-33.92,22.22-50.56,22.22 c-22.58,0-37.49-8.17-44.75-24.52c-4.5-10.11-6.74-28.3-6.74-54.55c0-23.7,1.89-43.77,5.66-60.22c0.92-3.98,2.61-5.97,5.06-5.97 c2.96,0,7.41,0.05,13.33,0.15c5.93,0.1,10.37,0.15,13.34,0.15c2.04,0,3.06,1.13,3.06,3.37c0,3.99-0.66,10.63-2,19.92 c-1.43,9.91-2.2,16.91-2.3,20.99c-0.3,6.13-0.46,12.88-0.46,20.23c0,17.88,1.27,29.88,3.83,36c4.39,11.04,14.14,16.55,29.27,16.55 c6.43,0,14.04-3.17,22.83-9.5c9.29-6.64,14.09-13.03,14.4-19.16c0.51-7.66,0.76-34.62,0.76-80.9c0-5,2.09-7.51,6.28-7.51h25.28 C855.1,103.14,856.58,104.93,856.58,108.5z"></path> <path class="st7" d="M1023.79,33.72c0,13.18-0.58,32.92-1.76,59.22c-1.17,26.3-1.76,46-1.76,59.07c0,40.36,0.87,70.89,2.6,91.64 l0.15,1.99c0.1,1.03-1.28,1.68-4.14,1.99c-1.94,0.2-4.7,0.2-8.28,0c-4.29-0.31-6.28-0.46-5.98-0.46c-1.54,0-3.79,0.15-6.75,0.46 c-2.96,0.3-5.21,0.46-6.74,0.46c-1.43,0-2.27-3.55-2.53-10.65c-0.26-7.1-0.64-10.7-1.15-10.8c-0.61,0.31-1.37,0.97-2.3,1.99 c-13.99,15.12-30.08,22.68-48.26,22.68c-20.64,0-37.6-7.86-50.88-23.6c-12.56-14.81-18.85-32.69-18.85-53.63 c0-21.76,6.34-40.04,19-54.85c13.28-15.53,30.6-23.29,51.95-23.29c12.87,0,24.1,3.78,33.72,11.34c4.38,3.78,8.73,7.61,13.03,11.49 c0.82-0.31,1.22-1.02,1.22-2.15V66.97c0-3.37-0.16-8.48-0.46-15.32c-0.31-6.85-0.47-12.01-0.47-15.48c0-2.45,0.82-3.68,2.46-3.68 c3.78,0,9.4-0.33,16.85-1c7.46-0.67,13.03-1,16.71-1C1022.92,30.5,1023.79,31.58,1023.79,33.72z M985.48,173.16 c0-12.26-3.77-23.03-11.33-32.33c-8.07-9.91-18.08-14.86-30.03-14.86c-12.57,0-22.94,4.9-31.11,14.71 c-7.76,9.19-11.64,20.23-11.64,33.09c0,12.25,4.03,22.94,12.1,32.03c8.27,9.6,18.5,14.4,30.65,14.4 c12.25,0,22.37-4.86,30.34-14.55C981.81,196.55,985.48,185.73,985.48,173.16z"></path> <path class="st7" d="M1075.14,109.94c0,7.87-0.48,19.74-1.45,35.62c-0.98,15.89-1.46,27.81-1.46,35.78 c0,7.46,0.16,18.62,0.46,33.49c0.31,14.86,0.46,25.97,0.46,33.33c0,2.14-0.92,3.22-2.75,3.22h-29.88c-2.15,0-3.22-2.09-3.22-6.29 c0-7.05,0.17-17.64,0.54-31.79c0.35-14.15,0.53-24.8,0.53-31.95c0-7.96-0.59-19.92-1.76-35.85c-1.18-15.93-1.76-27.88-1.76-35.85 c0-1.74,1.08-2.61,3.22-2.61c1.84,0,4.67,0.25,8.5,0.77c3.84,0.51,6.72,0.77,8.67,0.77c1.94,0,4.83-0.26,8.65-0.77 c3.83-0.51,6.72-0.77,8.66-0.77C1074.27,107.03,1075.14,108,1075.14,109.94z"></path> <g> <g> <path class="st7" d="M391.86,143.41c7.67,8.79,11.5,19.41,11.5,31.87c0,5.33-0.78,10.33-2.22,15.04l29.35,14.19 c3.46-9.08,5.2-18.92,5.2-29.54c0-21.24-7.05-39.33-21.15-54.24c-12.33-13.2-27.15-20.7-44.48-22.53v32.09 C378.55,132.01,385.83,136.37,391.86,143.41z"></path> <path class="st7" d="M322.4,192.28c-1.9-5.27-2.86-10.93-2.86-17c0-12.46,3.83-23.14,11.49-32.03 c6.08-6.92,13.35-11.24,21.81-12.94v-32.1c-17.37,1.85-32.25,9.34-44.64,22.52c-14,15.01-21,33.2-21,54.55 c0,11.28,2.01,21.65,5.92,31.16L322.4,192.28z"></path> <path class="st7" d="M393.12,205.56c-0.42,0.53-0.81,1.08-1.26,1.59c-8.07,9.51-18.18,14.26-30.34,14.26 c-12.05,0-22.16-4.75-30.34-14.26l-29.69,14.36c2.04,2.86,4.22,5.66,6.71,8.32c14.3,15.53,32.08,23.29,53.32,23.29 c21.15,0,38.87-7.82,53.18-23.44c2.92-3.16,5.47-6.49,7.78-9.92L393.12,205.56z"></path> </g> </g> <g> <g> <path class="st7" d="M1186.42,146.95c7.67,8.79,11.5,19.41,11.5,31.87c0,5.32-0.78,10.33-2.22,15.04l29.35,14.19 c3.46-9.07,5.2-18.92,5.2-29.54c0-21.24-7.05-39.32-21.15-54.24c-12.33-13.2-27.15-20.7-44.48-22.53v32.09 C1173.12,135.54,1180.39,139.9,1186.42,146.95z"></path> <path class="st7" d="M1116.96,195.81c-1.9-5.27-2.86-10.93-2.86-17c0-12.46,3.83-23.14,11.49-32.03 c6.08-6.93,13.35-11.24,21.81-12.94v-32.1c-17.36,1.85-32.25,9.34-44.64,22.52c-14,15.01-21,33.2-21,54.55 c0,11.28,2.01,21.65,5.93,31.16L1116.96,195.81z"></path> <path class="st7" d="M1187.68,209.09c-0.42,0.53-0.81,1.07-1.26,1.59c-8.07,9.5-18.18,14.25-30.34,14.25 c-12.05,0-22.16-4.75-30.34-14.25l-29.69,14.36c2.04,2.86,4.22,5.65,6.71,8.32c14.3,15.52,32.08,23.29,53.32,23.29 c21.15,0,38.87-7.81,53.18-23.44c2.92-3.16,5.47-6.49,7.78-9.92L1187.68,209.09z"></path> </g> </g> </g> </g> <g id="Pro_outline" class="st0"> <g class="st1"> <path class="st7" d="M185.95,182.5c0,20.64-6.54,38.57-19.61,53.79c-13.69,16.04-30.7,24.05-51.03,24.05 c-12.67,0-23.75-3.93-33.26-11.8c-4.28-3.98-8.58-8.02-12.87-12.1c-0.62,0.31-1.02,1.12-1.22,2.46 c-0.11,0.61-0.15,6.33-0.15,17.16l-0.16,67.87c0,3.27-1.17,4.91-3.52,4.91c-15.74,0-25.03-0.2-27.89-0.62 c-2.34-0.3-3.52-1.63-3.52-3.98c0-13.08,0.1-57.36,0.31-83.51c0.2-26.15,0.31-45.76,0.31-58.83c0-24-1.53-46.53-4.59-67.57 c-0.21-1.22-0.31-2.04-0.31-2.45c0-1.12,0.5-1.84,1.53-2.15c3.89-0.21,9.55-0.76,17.01-1.69c10.01-1.84,15.64-2.76,16.86-2.76 c1.74,0,2.86,3.06,3.37,9.19c0.31,4.09,0.56,8.12,0.77,12.11c0,0.82,0.3,1.63,0.91,2.45c0.71-0.41,1.53-1.12,2.46-2.14 c14.3-14.61,28.76-21.91,43.36-21.91c20.23,0,37.29,7.92,51.19,23.75C179.26,143.94,185.95,161.86,185.95,182.5z M150.09,181.88 c0-12.25-3.83-23.04-11.49-32.33c-8.07-9.91-18.13-14.86-30.18-14.86c-11.85,0-21.55,5.11-29.11,15.32 c-6.96,9.19-10.43,19.92-10.43,32.18c0,12.46,3.58,23.29,10.72,32.49c7.87,9.91,17.88,14.86,30.03,14.86 c11.65,0,21.45-5.16,29.42-15.47C146.41,204.46,150.09,193.73,150.09,181.88z"></path> <path class="st7" d="M286.06,105c0,11.23-0.77,21.45-2.3,30.64c-0.31,2.36-1.33,3.52-3.07,3.52c-2.14,0-5.38-0.23-9.73-0.68 c-4.34-0.46-7.63-0.69-9.88-0.69c-12.88,0-21.09,3.63-24.67,10.87c-2.14,4.39-3.22,13.54-3.22,27.43v16.85 c0,5.73,0.24,14.41,0.69,26.05c0.46,11.64,0.69,20.33,0.69,26.05c0,2.75-1.18,4.13-3.52,4.13c-3.17,0-7.97-0.05-14.41-0.15 c-6.44-0.11-11.24-0.16-14.41-0.16c-2.34,0-3.52-1.27-3.52-3.82c0-8.28,0.13-20.75,0.39-37.4c0.25-16.65,0.38-29.16,0.38-37.54 c0-25.23-2.36-45.51-7.05-60.83c-0.21-0.81-0.31-1.43-0.31-1.84c0-1.22,0.66-2.1,1.99-2.61c3.78-0.41,9.1-1.02,15.94-1.84 c11.04-2.05,16.14-3.06,15.33-3.06c1.63,0,2.71,3.01,3.22,9.03c0.51,6.04,1.43,9.05,2.76,9.05c0.2,0,0.46-0.1,0.76-0.31 c4.19-2.65,8.38-5.31,12.57-7.96c4.6-2.76,9.29-4.8,14.1-6.13c3.98-1.23,9.09-1.84,15.32-1.84 C282.07,101.79,286.06,102.86,286.06,105z"></path> <g> <g> <path class="st7" d="M391.86,144.82c7.67,8.79,11.5,19.41,11.5,31.87c0,5.33-0.78,10.33-2.22,15.04l29.35,14.19 c3.46-9.08,5.2-18.92,5.2-29.54c0-21.24-7.05-39.33-21.15-54.24c-12.33-13.2-27.15-20.7-44.48-22.53v32.09 C378.55,133.41,385.83,137.78,391.86,144.82z"></path> <path class="st7" d="M322.4,193.69c-1.9-5.27-2.86-10.93-2.86-17c0-12.46,3.83-23.14,11.49-32.03 c6.08-6.92,13.35-11.24,21.81-12.94v-32.1c-17.37,1.85-32.25,9.34-44.64,22.52c-14,15.01-21,33.2-21,54.55 c0,11.28,2.01,21.65,5.92,31.16L322.4,193.69z"></path> <path class="st7" d="M393.12,206.97c-0.42,0.53-0.81,1.08-1.26,1.59c-8.07,9.51-18.18,14.26-30.34,14.26 c-12.05,0-22.16-4.75-30.34-14.26l-29.69,14.36c2.04,2.86,4.22,5.66,6.71,8.32c14.3,15.53,32.08,23.29,53.32,23.29 c21.15,0,38.87-7.82,53.18-23.44c2.92-3.16,5.47-6.49,7.78-9.92L393.12,206.97z"></path> </g> </g> </g> </g> <g id="Erudio_outline" class="st0"> <g class="st1"> <path class="st7" d="M611.32,166.6c0,7.56-3.27,12.62-9.8,15.17c-4.4,1.64-36.02,4.65-94.86,9.04c1.33,9,6.29,16.66,14.86,22.99 c8.17,6.03,16.96,9.04,26.36,9.04c16.13,0,30.95-5.21,44.43-15.63c1.64-1.32,3.27-2.65,4.9-3.98c0.82,0,1.35,0.1,1.62,0.3 c0.25,0.21,2.16,3.76,5.74,10.65c3.58,6.89,5.37,10.6,5.37,11.11c0,0.61-0.82,1.79-2.46,3.53c-15.02,15.94-34.26,23.9-57.76,23.9 c-23.71,0-42.6-7.07-56.7-21.22c-14.1-14.14-21.15-33.02-21.15-56.62c0-21.04,6.75-39.38,20.23-55.01 c14.2-16.24,31.62-24.37,52.26-24.37c19.2,0,35.24,7.05,48.11,21.14C605.04,130.34,611.32,146.99,611.32,166.6z M574.86,157.25 c0-8.48-3.35-15.99-10.04-22.53c-6.7-6.53-14.23-9.81-22.6-9.81c-9.4,0-17.75,3.78-25.06,11.34 c-7.31,7.56-10.96,16.03-10.96,25.44c0,2.14,1.84,3.21,5.52,3.21c15.11,0,33.2-1.53,54.24-4.59 C571.89,159.5,574.86,158.48,574.86,157.25z"></path> <path class="st7" d="M709.13,105c0,11.23-0.77,21.45-2.3,30.64c-0.31,2.36-1.33,3.52-3.06,3.52c-2.14,0-5.39-0.23-9.73-0.68 c-4.35-0.46-7.63-0.69-9.88-0.69c-12.88,0-21.09,3.63-24.67,10.87c-2.15,4.39-3.22,13.54-3.22,27.43v16.85 c0,5.73,0.23,14.41,0.69,26.05c0.46,11.64,0.69,20.33,0.69,26.05c0,2.75-1.17,4.13-3.52,4.13c-3.17,0-7.98-0.05-14.41-0.15 c-6.43-0.11-11.24-0.16-14.4-0.16c-2.35,0-3.53-1.27-3.53-3.82c0-8.28,0.13-20.75,0.39-37.4c0.25-16.65,0.38-29.16,0.38-37.54 c0-25.23-2.35-45.51-7.05-60.83c-0.2-0.81-0.31-1.43-0.31-1.84c0-1.22,0.67-2.1,1.99-2.61c3.78-0.41,9.09-1.02,15.95-1.84 c11.03-2.05,16.13-3.06,15.31-3.06c1.64,0,2.71,3.01,3.22,9.03c0.51,6.04,1.42,9.05,2.76,9.05c0.2,0,0.46-0.1,0.77-0.31 c4.18-2.65,8.37-5.31,12.56-7.96c4.6-2.76,9.29-4.8,14.1-6.13c3.98-1.23,9.08-1.84,15.32-1.84 C705.15,101.79,709.13,102.86,709.13,105z"></path> <path class="st7" d="M856.58,109.91c0,7.46-0.31,18.72-0.92,33.78c-0.62,15.07-0.92,26.38-0.92,33.94c0,7.45,0.23,18.61,0.7,33.48 c0.46,14.86,0.68,26.03,0.68,33.48c0,2.05-0.97,3.37-2.91,3.99c-0.82,0.21-11.18,0.3-31.1,0.3c-1.23,0-1.97-3.82-2.22-11.49 c-0.26-7.66-0.85-11.49-1.76-11.49c-0.52,0-1.28,0.46-2.3,1.38c-17.06,14.81-33.92,22.22-50.56,22.22 c-22.58,0-37.49-8.17-44.75-24.52c-4.5-10.11-6.74-28.3-6.74-54.55c0-23.7,1.89-43.77,5.66-60.22c0.92-3.98,2.61-5.97,5.06-5.97 c2.96,0,7.41,0.05,13.33,0.15c5.93,0.1,10.37,0.15,13.34,0.15c2.04,0,3.06,1.13,3.06,3.37c0,3.99-0.66,10.63-2,19.92 c-1.43,9.91-2.2,16.91-2.3,20.99c-0.3,6.13-0.46,12.88-0.46,20.23c0,17.88,1.27,29.88,3.83,36c4.39,11.04,14.14,16.55,29.27,16.55 c6.43,0,14.04-3.17,22.83-9.5c9.29-6.64,14.09-13.03,14.4-19.16c0.51-7.66,0.76-34.62,0.76-80.9c0-5,2.09-7.51,6.28-7.51h25.28 C855.1,104.54,856.58,106.33,856.58,109.91z"></path> <path class="st7" d="M1023.79,35.13c0,13.18-0.58,32.92-1.76,59.22c-1.17,26.3-1.76,46-1.76,59.07c0,40.36,0.87,70.89,2.6,91.64 l0.15,1.99c0.1,1.03-1.28,1.68-4.14,1.99c-1.94,0.2-4.7,0.2-8.28,0c-4.29-0.31-6.28-0.46-5.98-0.46c-1.54,0-3.79,0.15-6.75,0.46 c-2.96,0.3-5.21,0.46-6.74,0.46c-1.43,0-2.27-3.55-2.53-10.65c-0.26-7.1-0.64-10.7-1.15-10.8c-0.61,0.31-1.37,0.97-2.3,1.99 c-13.99,15.12-30.08,22.68-48.26,22.68c-20.64,0-37.6-7.86-50.88-23.6c-12.56-14.81-18.85-32.69-18.85-53.63 c0-21.76,6.34-40.04,19-54.85c13.28-15.53,30.6-23.29,51.95-23.29c12.87,0,24.1,3.78,33.72,11.34c4.38,3.78,8.73,7.61,13.03,11.49 c0.82-0.31,1.22-1.02,1.22-2.15V68.38c0-3.37-0.16-8.48-0.46-15.32c-0.31-6.85-0.47-12.01-0.47-15.48c0-2.45,0.82-3.68,2.46-3.68 c3.78,0,9.4-0.33,16.85-1c7.46-0.67,13.03-1,16.71-1C1022.92,31.91,1023.79,32.98,1023.79,35.13z M985.48,174.57 c0-12.26-3.77-23.03-11.33-32.33c-8.07-9.91-18.08-14.86-30.03-14.86c-12.57,0-22.94,4.9-31.11,14.71 c-7.76,9.19-11.64,20.23-11.64,33.09c0,12.25,4.03,22.94,12.1,32.03c8.27,9.6,18.5,14.4,30.65,14.4 c12.25,0,22.37-4.86,30.34-14.55C981.81,197.96,985.48,187.14,985.48,174.57z"></path> <path class="st7" d="M1075.14,111.35c0,7.87-0.48,19.74-1.45,35.62c-0.98,15.89-1.46,27.81-1.46,35.78 c0,7.46,0.16,18.62,0.46,33.49c0.31,14.86,0.46,25.97,0.46,33.33c0,2.14-0.92,3.22-2.75,3.22h-29.88c-2.15,0-3.22-2.09-3.22-6.29 c0-7.05,0.17-17.64,0.54-31.79c0.35-14.15,0.53-24.8,0.53-31.95c0-7.96-0.59-19.92-1.76-35.85c-1.18-15.93-1.76-27.88-1.76-35.85 c0-1.74,1.08-2.61,3.22-2.61c1.84,0,4.67,0.25,8.5,0.77c3.84,0.51,6.72,0.77,8.67,0.77c1.94,0,4.83-0.26,8.65-0.77 c3.83-0.51,6.72-0.77,8.66-0.77C1074.27,108.43,1075.14,109.41,1075.14,111.35z"></path> <g> <g> <path class="st7" d="M1186.42,148.35c7.67,8.79,11.5,19.41,11.5,31.87c0,5.32-0.78,10.33-2.22,15.04l29.35,14.19 c3.46-9.07,5.2-18.92,5.2-29.54c0-21.24-7.05-39.32-21.15-54.24c-12.33-13.2-27.15-20.7-44.48-22.53v32.09 C1173.12,136.95,1180.39,141.31,1186.42,148.35z"></path> <path class="st7" d="M1116.96,197.22c-1.9-5.27-2.86-10.93-2.86-17c0-12.46,3.83-23.14,11.49-32.03 c6.08-6.93,13.35-11.24,21.81-12.94v-32.1c-17.36,1.85-32.25,9.34-44.64,22.52c-14,15.01-21,33.2-21,54.55 c0,11.28,2.01,21.65,5.93,31.16L1116.96,197.22z"></path> <path class="st7" d="M1187.68,210.5c-0.42,0.53-0.81,1.07-1.26,1.59c-8.07,9.5-18.18,14.25-30.34,14.25 c-12.05,0-22.16-4.75-30.34-14.25l-29.69,14.36c2.04,2.86,4.22,5.65,6.71,8.32c14.3,15.52,32.08,23.29,53.32,23.29 c21.15,0,38.87-7.81,53.18-23.44c2.92-3.16,5.47-6.49,7.78-9.92L1187.68,210.5z"></path> </g> </g> </g> </g> <g id="Fara_school"> <g> <path class="st2" d="M185.95,181.09c0,20.64-6.54,38.57-19.61,53.79c-13.69,16.04-30.7,24.05-51.03,24.05 c-12.67,0-23.75-3.93-33.26-11.8c-4.28-3.98-8.58-8.02-12.87-12.1c-0.62,0.31-1.02,1.12-1.22,2.46 c-0.11,0.61-0.15,6.33-0.15,17.16l-0.16,67.87c0,3.27-1.17,4.91-3.52,4.91c-15.74,0-25.03-0.21-27.89-0.62 c-2.34-0.3-3.52-1.63-3.52-3.98c0-13.08,0.1-57.36,0.31-83.51c0.2-26.15,0.31-45.76,0.31-58.83c0-24-1.53-46.53-4.59-67.57 c-0.21-1.22-0.31-2.04-0.31-2.45c0-1.12,0.5-1.84,1.53-2.15c3.89-0.21,9.55-0.76,17.01-1.69c10.01-1.84,15.64-2.76,16.86-2.76 c1.74,0,2.86,3.06,3.37,9.19c0.31,4.09,0.56,8.12,0.77,12.11c0,0.82,0.3,1.63,0.91,2.45c0.71-0.41,1.53-1.12,2.46-2.14 c14.3-14.61,28.76-21.91,43.36-21.91c20.23,0,37.29,7.92,51.19,23.75C179.26,142.53,185.95,160.46,185.95,181.09z M150.09,180.48 c0-12.25-3.83-23.04-11.49-32.33c-8.07-9.91-18.13-14.86-30.18-14.86c-11.85,0-21.55,5.11-29.11,15.32 c-6.96,9.19-10.43,19.92-10.43,32.18c0,12.46,3.58,23.29,10.72,32.49c7.87,9.91,17.88,14.86,30.03,14.86 c11.65,0,21.45-5.16,29.42-15.47C146.41,203.06,150.09,192.33,150.09,180.48z"></path> <path class="st2" d="M286.06,103.6c0,11.23-0.77,21.45-2.3,30.64c-0.31,2.36-1.33,3.52-3.07,3.52c-2.14,0-5.38-0.23-9.73-0.68 c-4.34-0.46-7.63-0.69-9.88-0.69c-12.88,0-21.09,3.63-24.67,10.87c-2.14,4.39-3.22,13.54-3.22,27.43v16.85 c0,5.73,0.24,14.41,0.69,26.05c0.46,11.64,0.69,20.33,0.69,26.05c0,2.75-1.18,4.13-3.52,4.13c-3.17,0-7.97-0.05-14.41-0.15 c-6.44-0.11-11.24-0.16-14.41-0.16c-2.34,0-3.52-1.27-3.52-3.82c0-8.28,0.13-20.75,0.39-37.4c0.25-16.65,0.38-29.16,0.38-37.54 c0-25.23-2.36-45.51-7.05-60.83c-0.21-0.81-0.31-1.43-0.31-1.84c0-1.22,0.66-2.1,1.99-2.61c3.78-0.41,9.1-1.02,15.94-1.84 c11.04-2.05,16.14-3.06,15.33-3.06c1.63,0,2.71,3.01,3.22,9.03c0.51,6.04,1.43,9.05,2.76,9.05c0.2,0,0.46-0.1,0.76-0.31 c4.19-2.65,8.38-5.31,12.57-7.96c4.6-2.76,9.29-4.8,14.1-6.13c3.98-1.23,9.09-1.84,15.32-1.84 C282.07,100.38,286.06,101.45,286.06,103.6z"></path> <path class="st2" d="M611.32,165.19c0,7.56-3.27,12.62-9.8,15.17c-4.4,1.64-36.02,4.65-94.86,9.04c1.33,9,6.29,16.66,14.86,22.99 c8.17,6.03,16.96,9.04,26.36,9.04c16.13,0,30.95-5.21,44.43-15.63c1.64-1.32,3.27-2.65,4.9-3.98c0.82,0,1.35,0.1,1.62,0.3 c0.25,0.21,2.16,3.76,5.74,10.65c3.58,6.89,5.37,10.6,5.37,11.11c0,0.61-0.82,1.79-2.46,3.53c-15.02,15.94-34.26,23.9-57.76,23.9 c-23.71,0-42.6-7.07-56.7-21.22c-14.1-14.14-21.15-33.02-21.15-56.62c0-21.04,6.75-39.38,20.23-55.01 c14.2-16.24,31.62-24.37,52.26-24.37c19.2,0,35.24,7.05,48.11,21.14C605.04,128.93,611.32,145.58,611.32,165.19z M574.86,155.85 c0-8.48-3.35-15.99-10.04-22.53c-6.7-6.53-14.23-9.81-22.6-9.81c-9.4,0-17.75,3.78-25.06,11.34 c-7.31,7.56-10.96,16.03-10.96,25.44c0,2.14,1.84,3.21,5.52,3.21c15.11,0,33.2-1.53,54.24-4.59 C571.89,158.09,574.86,157.07,574.86,155.85z"></path> <path class="st2" d="M709.13,103.6c0,11.23-0.77,21.45-2.3,30.64c-0.31,2.36-1.33,3.52-3.06,3.52c-2.14,0-5.39-0.23-9.73-0.68 c-4.35-0.46-7.63-0.69-9.88-0.69c-12.88,0-21.09,3.63-24.67,10.87c-2.15,4.39-3.22,13.54-3.22,27.43v16.85 c0,5.73,0.23,14.41,0.69,26.05c0.46,11.64,0.69,20.33,0.69,26.05c0,2.75-1.17,4.13-3.52,4.13c-3.17,0-7.98-0.05-14.41-0.15 c-6.43-0.11-11.24-0.16-14.4-0.16c-2.35,0-3.53-1.27-3.53-3.82c0-8.28,0.13-20.75,0.39-37.4c0.25-16.65,0.38-29.16,0.38-37.54 c0-25.23-2.35-45.51-7.05-60.83c-0.2-0.81-0.31-1.43-0.31-1.84c0-1.22,0.67-2.1,1.99-2.61c3.78-0.41,9.09-1.02,15.95-1.84 c11.03-2.05,16.13-3.06,15.31-3.06c1.64,0,2.71,3.01,3.22,9.03c0.51,6.04,1.42,9.05,2.76,9.05c0.2,0,0.46-0.1,0.77-0.31 c4.18-2.65,8.37-5.31,12.56-7.96c4.6-2.76,9.29-4.8,14.1-6.13c3.98-1.23,9.08-1.84,15.32-1.84 C705.15,100.38,709.13,101.45,709.13,103.6z"></path> <path class="st2" d="M856.58,108.5c0,7.46-0.31,18.72-0.92,33.78c-0.62,15.07-0.92,26.38-0.92,33.94c0,7.45,0.23,18.61,0.7,33.48 c0.46,14.86,0.68,26.03,0.68,33.48c0,2.05-0.97,3.37-2.91,3.99c-0.82,0.21-11.18,0.3-31.1,0.3c-1.23,0-1.97-3.82-2.22-11.49 c-0.26-7.66-0.85-11.49-1.76-11.49c-0.52,0-1.28,0.46-2.3,1.38c-17.06,14.81-33.92,22.22-50.56,22.22 c-22.58,0-37.49-8.17-44.75-24.52c-4.5-10.11-6.74-28.3-6.74-54.55c0-23.7,1.89-43.77,5.66-60.22c0.92-3.98,2.61-5.97,5.06-5.97 c2.96,0,7.41,0.05,13.33,0.15c5.93,0.1,10.37,0.15,13.34,0.15c2.04,0,3.06,1.13,3.06,3.37c0,3.99-0.66,10.63-2,19.92 c-1.43,9.91-2.2,16.91-2.3,20.99c-0.3,6.13-0.46,12.88-0.46,20.23c0,17.88,1.27,29.88,3.83,36c4.39,11.04,14.14,16.55,29.27,16.55 c6.43,0,14.04-3.17,22.83-9.5c9.29-6.64,14.09-13.03,14.4-19.16c0.51-7.66,0.76-34.62,0.76-80.9c0-5,2.09-7.51,6.28-7.51h25.28 C855.1,103.14,856.58,104.93,856.58,108.5z"></path> <path class="st2" d="M1023.79,33.72c0,13.18-0.58,32.92-1.76,59.22c-1.17,26.3-1.76,46-1.76,59.07c0,40.36,0.87,70.89,2.6,91.64 l0.15,1.99c0.1,1.03-1.28,1.68-4.14,1.99c-1.94,0.2-4.7,0.2-8.28,0c-4.29-0.31-6.28-0.46-5.98-0.46c-1.54,0-3.79,0.15-6.75,0.46 c-2.96,0.3-5.21,0.46-6.74,0.46c-1.43,0-2.27-3.55-2.53-10.65c-0.26-7.1-0.64-10.7-1.15-10.8c-0.61,0.31-1.37,0.97-2.3,1.99 c-13.99,15.12-30.08,22.68-48.26,22.68c-20.64,0-37.6-7.86-50.88-23.6c-12.56-14.81-18.85-32.69-18.85-53.63 c0-21.76,6.34-40.04,19-54.85c13.28-15.53,30.6-23.29,51.95-23.29c12.87,0,24.1,3.78,33.72,11.34c4.38,3.78,8.73,7.61,13.03,11.49 c0.82-0.31,1.22-1.02,1.22-2.15V66.97c0-3.37-0.16-8.48-0.46-15.32c-0.31-6.85-0.47-12.01-0.47-15.48c0-2.45,0.82-3.68,2.46-3.68 c3.78,0,9.4-0.33,16.85-1c7.46-0.67,13.03-1,16.71-1C1022.92,30.5,1023.79,31.58,1023.79,33.72z M985.48,173.16 c0-12.26-3.77-23.03-11.33-32.33c-8.07-9.91-18.08-14.86-30.03-14.86c-12.57,0-22.94,4.9-31.11,14.71 c-7.76,9.19-11.64,20.23-11.64,33.09c0,12.25,4.03,22.94,12.1,32.03c8.27,9.6,18.5,14.4,30.65,14.4 c12.25,0,22.37-4.86,30.34-14.55C981.81,196.55,985.48,185.73,985.48,173.16z"></path> <path class="st2" d="M1075.14,109.94c0,7.87-0.48,19.74-1.45,35.62c-0.98,15.89-1.46,27.81-1.46,35.78 c0,7.46,0.16,18.62,0.46,33.49c0.31,14.86,0.46,25.97,0.46,33.33c0,2.14-0.92,3.22-2.75,3.22h-29.88c-2.15,0-3.22-2.09-3.22-6.29 c0-7.05,0.17-17.64,0.54-31.79c0.35-14.15,0.53-24.8,0.53-31.95c0-7.96-0.59-19.92-1.76-35.85c-1.18-15.93-1.76-27.88-1.76-35.85 c0-1.74,1.08-2.61,3.22-2.61c1.84,0,4.67,0.25,8.5,0.77c3.84,0.51,6.72,0.77,8.67,0.77c1.94,0,4.83-0.26,8.65-0.77 c3.83-0.51,6.72-0.77,8.66-0.77C1074.27,107.03,1075.14,108,1075.14,109.94z"></path> <g> <g> <path class="st3" d="M391.86,143.41c7.67,8.79,11.5,19.41,11.5,31.87c0,5.33-0.78,10.33-2.22,15.04l29.35,14.19 c3.46-9.08,5.2-18.92,5.2-29.54c0-21.24-7.05-39.33-21.15-54.24c-12.33-13.2-27.15-20.7-44.48-22.53v32.09 C378.55,132.01,385.83,136.37,391.86,143.41z"></path> <path class="st4" d="M322.4,192.28c-1.9-5.27-2.86-10.93-2.86-17c0-12.46,3.83-23.14,11.49-32.03 c6.08-6.92,13.35-11.24,21.81-12.94v-32.1c-17.37,1.85-32.25,9.34-44.64,22.52c-14,15.01-21,33.2-21,54.55 c0,11.28,2.01,21.65,5.92,31.16L322.4,192.28z"></path> <path class="st5" d="M393.12,205.56c-0.42,0.53-0.81,1.08-1.26,1.59c-8.07,9.51-18.18,14.26-30.34,14.26 c-12.05,0-22.16-4.75-30.34-14.26l-29.69,14.36c2.04,2.86,4.22,5.66,6.71,8.32c14.3,15.53,32.08,23.29,53.32,23.29 c21.15,0,38.87-7.82,53.18-23.44c2.92-3.16,5.47-6.49,7.78-9.92L393.12,205.56z"></path> </g> </g> <path class="st4" d="M1076.13,305.6c0,12.56-7,18.85-20.99,18.85c-14.2,0-21.3-6.28-21.3-18.85c0-5.62,2.2-10.27,6.59-13.94 c4.08-3.47,8.99-5.21,14.71-5.21c5.72,0,10.65,1.79,14.79,5.36C1074.07,295.39,1076.13,299.99,1076.13,305.6z"></path> <g> <g> <path class="st6" d="M171.28,290.49c-0.51-0.64-0.99-1.24-1.45-1.79c-1.11-1.16-2.35-2.11-3.74-2.88 c-1.38-0.76-2.83-1.37-4.33-1.84c-1.5-0.46-3.05-0.78-4.64-0.97c-1.59-0.18-3.15-0.28-4.67-0.28c-0.37,0-1,0.01-1.9,0.04 c-0.9,0.03-1.95,0.13-3.15,0.31c-1.2,0.19-2.47,0.48-3.81,0.88c-1.34,0.39-2.61,0.94-3.81,1.64c-0.69,0.42-1.36,0.92-2.01,1.5 c-0.65,0.58-1.18,1.25-1.59,1.99c-0.14,0.23-0.32,0.66-0.55,1.29c-0.23,0.63-0.35,1.36-0.35,2.2c0,0.89,0.15,1.63,0.45,2.23 c0.3,0.61,0.66,1.12,1.07,1.53c0.42,0.42,0.84,0.75,1.28,0.98c0.44,0.23,0.77,0.42,1,0.56c1.01,0.51,2.21,0.88,3.57,1.12 c1.36,0.23,3.2,0.51,5.5,0.84c5.31,0.79,9.71,1.43,13.22,1.94c3.51,0.51,6.34,1.22,8.52,2.14c2.21,0.92,3.98,2.28,5.3,4.05 c1.31,1.78,1.97,3.89,1.97,6.33c0,0.69-0.13,1.71-0.38,3.04c-0.25,1.34-0.89,2.75-1.9,4.22c-0.79,1.11-1.78,2.17-2.98,3.19 c-1.2,1.02-2.69,1.93-4.46,2.74c-1.78,0.81-3.83,1.44-6.16,1.9c-2.33,0.46-5,0.69-8,0.69c-0.69,0-1.38-0.01-2.08-0.04 c-0.69-0.02-1.41-0.05-2.15-0.1c-0.51-0.05-1.46-0.14-2.87-0.28c-1.41-0.14-3.01-0.44-4.81-0.9c-1.8-0.46-3.66-1.17-5.57-2.11 c-1.92-0.95-3.64-2.22-5.16-3.84c-0.92-0.97-1.68-1.96-2.28-2.97c-0.6-1.02-1.22-2.1-1.87-3.26l5.12-1.94 c0.14,0.41,0.35,0.91,0.62,1.49c0.28,0.58,0.63,1.21,1.07,1.9c0.44,0.69,0.99,1.4,1.66,2.11c0.67,0.72,1.49,1.4,2.46,2.04 c1.43,0.92,3.39,1.75,5.89,2.49c2.49,0.74,5.7,1.11,9.62,1.11c0.46,0,1.2-0.01,2.21-0.04c1.01-0.02,2.17-0.14,3.46-0.34 c1.29-0.21,2.67-0.53,4.12-0.97c1.45-0.44,2.85-1.05,4.19-1.84c1.48-0.92,2.71-2.04,3.7-3.36c0.99-1.31,1.49-2.87,1.49-4.67 c0-1.43-0.28-2.55-0.83-3.36c-0.55-0.8-1.04-1.39-1.45-1.77c-0.78-0.64-1.83-1.18-3.15-1.62c-1.32-0.44-2.7-0.81-4.15-1.11 c-1.45-0.3-2.89-0.54-4.29-0.73c-1.41-0.18-2.55-0.35-3.43-0.49c-1.48-0.23-2.95-0.42-4.43-0.59c-1.48-0.16-2.96-0.36-4.43-0.59 c-1.57-0.23-3.24-0.51-5.02-0.83c-1.78-0.32-3.38-0.85-4.81-1.59c-0.42-0.19-0.96-0.5-1.63-0.94c-0.67-0.44-1.32-1.03-1.94-1.76 c-0.62-0.74-1.16-1.63-1.59-2.67c-0.44-1.04-0.66-2.27-0.66-3.7c0-2.36,0.67-4.48,2.01-6.37c1.34-1.89,3-3.39,4.98-4.5 c2.22-1.2,4.73-2.05,7.55-2.56c2.81-0.51,5.47-0.76,7.96-0.76c0.74,0,1.83,0.05,3.29,0.13c1.45,0.09,3.08,0.33,4.88,0.71 c1.8,0.38,3.69,0.97,5.68,1.77c1.98,0.8,3.9,1.96,5.75,3.48c0.88,0.74,1.58,1.4,2.11,1.98c0.53,0.58,0.93,1.05,1.21,1.42 L171.28,290.49z"></path> <path class="st6" d="M230.61,294.17c-0.23-0.37-0.67-1.07-1.32-2.11c-0.65-1.04-1.48-2.06-2.49-3.08 c-1.43-1.43-2.96-2.56-4.57-3.39c-1.62-0.83-3.18-1.45-4.71-1.87c-1.52-0.41-2.9-0.66-4.12-0.76c-1.22-0.09-2.13-0.13-2.73-0.13 c-0.69,0-1.66,0.06-2.91,0.17c-1.25,0.12-2.64,0.39-4.19,0.83c-1.55,0.44-3.15,1.1-4.81,1.97c-1.66,0.88-3.23,2.08-4.71,3.6 c-1.34,1.38-2.4,2.84-3.18,4.36c-0.79,1.52-1.37,2.97-1.76,4.36c-0.39,1.38-0.65,2.64-0.76,3.77c-0.11,1.13-0.17,2.02-0.17,2.66 c0,0.69,0.06,1.59,0.17,2.7c0.12,1.11,0.38,2.34,0.8,3.71c0.41,1.36,1.03,2.78,1.83,4.26c0.81,1.48,1.9,2.91,3.29,4.29 c1.48,1.48,3.05,2.64,4.71,3.5c1.66,0.85,3.25,1.49,4.78,1.9c1.52,0.42,2.9,0.67,4.12,0.76c1.22,0.09,2.18,0.14,2.87,0.14 c0.83,0,1.93-0.06,3.29-0.18c1.36-0.11,2.86-0.44,4.5-0.97c1.64-0.53,3.32-1.3,5.05-2.32c1.73-1.01,3.4-2.42,5.02-4.22 c0.51-0.6,0.97-1.17,1.39-1.73c0.41-0.56,1.01-1.46,1.8-2.7l4.22,2.01c-0.6,1.02-1.45,2.32-2.56,3.91 c-1.11,1.59-2.82,3.24-5.12,4.95c-0.79,0.55-1.72,1.15-2.8,1.8c-1.08,0.64-2.35,1.24-3.81,1.8c-1.45,0.55-3.12,1.02-4.99,1.39 c-1.87,0.37-3.96,0.55-6.27,0.55c-2.21,0-4.21-0.15-5.99-0.45c-1.78-0.3-3.36-0.69-4.74-1.18c-1.38-0.48-2.61-1.03-3.67-1.62 c-1.06-0.6-1.96-1.18-2.7-1.73c-3.32-2.49-5.88-5.55-7.68-9.18c-1.8-3.62-2.7-7.53-2.7-11.73c0-0.74,0.05-1.7,0.14-2.88 c0.09-1.18,0.33-2.48,0.73-3.91c0.39-1.43,0.96-2.93,1.7-4.5c0.74-1.56,1.78-3.14,3.12-4.71c1.85-2.26,3.85-4.04,6.02-5.33 c2.17-1.29,4.26-2.26,6.26-2.91c2.01-0.65,3.87-1.06,5.57-1.25c1.71-0.18,3.05-0.28,4.02-0.28c0.74,0,1.82,0.06,3.25,0.17 c1.43,0.12,3.02,0.42,4.78,0.9c1.75,0.48,3.6,1.19,5.54,2.11c1.94,0.92,3.78,2.19,5.54,3.81c1.11,1.02,2.04,2.03,2.8,3.04 c0.76,1.02,1.53,2.14,2.32,3.39L230.61,294.17z"></path> <path class="st6" d="M245.84,300.88h41.05v-20.91h4.78v48.88h-4.78v-23.88h-41.05v23.88h-4.78v-48.88h4.78V300.88z"></path> <path class="st6" d="M332.76,278.76c2.01,0.21,4.21,0.71,6.61,1.49c2.4,0.78,4.81,2,7.24,3.64c2.42,1.64,4.55,3.91,6.4,6.82 c0.88,1.38,1.58,2.76,2.11,4.12c0.53,1.36,0.94,2.64,1.21,3.84c0.27,1.2,0.45,2.28,0.52,3.26c0.07,0.97,0.1,1.75,0.1,2.35 c0,0.69-0.06,1.63-0.17,2.8c-0.12,1.18-0.36,2.47-0.73,3.88c-0.37,1.4-0.94,2.91-1.7,4.5c-0.76,1.59-1.76,3.15-3.01,4.67 c-1.99,2.35-4.14,4.21-6.47,5.57c-2.33,1.36-4.59,2.37-6.79,3.01c-2.19,0.65-4.2,1.05-6.02,1.21c-1.83,0.16-3.22,0.24-4.19,0.24 c-0.65,0-1.56-0.04-2.77-0.11c-1.2-0.07-2.55-0.24-4.05-0.52c-1.5-0.28-3.09-0.7-4.78-1.28c-1.68-0.58-3.37-1.35-5.05-2.32 c-1.69-0.97-3.29-2.19-4.81-3.67c-1.52-1.48-2.86-3.26-4.01-5.33c-0.74-1.34-1.33-2.64-1.76-3.91 c-0.44-1.27-0.76-2.45-0.97-3.53c-0.21-1.08-0.33-2.08-0.38-2.98c-0.05-0.89-0.07-1.62-0.07-2.18c0-0.92,0.11-2.27,0.31-4.05 c0.21-1.78,0.77-3.77,1.7-5.99c1.15-2.72,2.68-5.09,4.57-7.1c1.89-2.01,4.03-3.65,6.4-4.95c2.38-1.29,4.94-2.25,7.69-2.88 c2.75-0.62,5.53-0.93,8.34-0.93C329.24,278.45,330.75,278.55,332.76,278.76z M324.42,282.71c-1.02,0.12-2.16,0.32-3.43,0.63 c-1.27,0.3-2.62,0.75-4.05,1.36c-1.43,0.6-2.82,1.39-4.15,2.37c-0.69,0.51-1.52,1.25-2.49,2.22c-0.97,0.97-1.89,2.18-2.77,3.62 c-0.88,1.44-1.63,3.12-2.25,5.04c-0.62,1.93-0.93,4.12-0.93,6.58c0,0.65,0.08,1.76,0.24,3.34c0.16,1.58,0.61,3.27,1.35,5.08 c0.83,2.09,1.87,3.86,3.12,5.32c1.24,1.46,2.6,2.68,4.05,3.65c1.45,0.97,2.95,1.74,4.5,2.29c1.55,0.55,3,0.97,4.36,1.25 c1.36,0.28,2.58,0.45,3.67,0.52c1.08,0.07,1.93,0.1,2.53,0.1c0.6,0,1.47-0.04,2.6-0.1c1.13-0.07,2.39-0.26,3.77-0.56 c1.39-0.3,2.86-0.78,4.43-1.43c1.57-0.65,3.12-1.53,4.64-2.64c1.89-1.43,3.38-3.01,4.46-4.73c1.08-1.71,1.89-3.38,2.42-5.01 c0.53-1.62,0.85-3.11,0.97-4.45c0.12-1.34,0.17-2.41,0.17-3.2c0-0.56-0.02-1.26-0.07-2.12c-0.04-0.86-0.21-1.91-0.48-3.17 c-0.19-0.69-0.46-1.58-0.83-2.64c-0.37-1.07-0.92-2.22-1.66-3.44c-0.74-1.23-1.69-2.45-2.84-3.65c-1.15-1.2-2.58-2.27-4.29-3.2 c-0.6-0.32-1.37-0.68-2.32-1.08c-0.95-0.39-2.04-0.76-3.29-1.11c-1.24-0.35-2.63-0.62-4.16-0.8c-1.52-0.19-3.18-0.25-4.98-0.21 C326.2,282.53,325.43,282.59,324.42,282.71z"></path> <path class="st6" d="M395.9,278.76c2.01,0.21,4.21,0.71,6.61,1.49c2.4,0.78,4.81,2,7.24,3.64c2.42,1.64,4.56,3.91,6.4,6.82 c0.87,1.38,1.58,2.76,2.11,4.12c0.53,1.36,0.93,2.64,1.21,3.84c0.28,1.2,0.45,2.28,0.52,3.26c0.07,0.97,0.11,1.75,0.11,2.35 c0,0.69-0.06,1.63-0.17,2.8c-0.12,1.18-0.36,2.47-0.73,3.88c-0.37,1.4-0.93,2.91-1.69,4.5c-0.76,1.59-1.77,3.15-3.01,4.67 c-1.99,2.35-4.15,4.21-6.48,5.57c-2.33,1.36-4.59,2.37-6.78,3.01c-2.19,0.65-4.2,1.05-6.03,1.21c-1.82,0.16-3.22,0.24-4.19,0.24 c-0.65,0-1.57-0.04-2.77-0.11c-1.2-0.07-2.55-0.24-4.05-0.52c-1.5-0.28-3.1-0.7-4.78-1.28c-1.68-0.58-3.37-1.35-5.05-2.32 c-1.69-0.97-3.29-2.19-4.81-3.67c-1.52-1.48-2.86-3.26-4.01-5.33c-0.74-1.34-1.33-2.64-1.76-3.91 c-0.44-1.27-0.76-2.45-0.97-3.53c-0.21-1.08-0.34-2.08-0.38-2.98c-0.04-0.89-0.07-1.62-0.07-2.18c0-0.92,0.1-2.27,0.31-4.05 c0.21-1.78,0.78-3.77,1.7-5.99c1.15-2.72,2.68-5.09,4.57-7.1c1.89-2.01,4.03-3.65,6.4-4.95c2.38-1.29,4.94-2.25,7.69-2.88 c2.74-0.62,5.53-0.93,8.34-0.93C392.38,278.45,393.9,278.55,395.9,278.76z M387.56,282.71c-1.01,0.12-2.16,0.32-3.43,0.63 c-1.27,0.3-2.62,0.75-4.05,1.36c-1.43,0.6-2.82,1.39-4.16,2.37c-0.69,0.51-1.52,1.25-2.49,2.22c-0.97,0.97-1.89,2.18-2.77,3.62 c-0.88,1.44-1.63,3.12-2.25,5.04c-0.63,1.93-0.94,4.12-0.94,6.58c0,0.65,0.08,1.76,0.24,3.34c0.16,1.58,0.61,3.27,1.35,5.08 c0.83,2.09,1.87,3.86,3.12,5.32c1.25,1.46,2.6,2.68,4.05,3.65c1.45,0.97,2.95,1.74,4.5,2.29c1.55,0.55,3,0.97,4.36,1.25 c1.36,0.28,2.58,0.45,3.67,0.52c1.08,0.07,1.92,0.1,2.53,0.1c0.6,0,1.47-0.04,2.6-0.1c1.13-0.07,2.38-0.26,3.77-0.56 c1.38-0.3,2.86-0.78,4.43-1.43c1.57-0.65,3.11-1.53,4.64-2.64c1.89-1.43,3.38-3.01,4.47-4.73c1.08-1.71,1.89-3.38,2.42-5.01 c0.53-1.62,0.85-3.11,0.97-4.45c0.12-1.34,0.18-2.41,0.18-3.2c0-0.56-0.03-1.26-0.07-2.12c-0.04-0.86-0.2-1.91-0.48-3.17 c-0.18-0.69-0.46-1.58-0.83-2.64c-0.37-1.07-0.93-2.22-1.66-3.44c-0.74-1.23-1.69-2.45-2.84-3.65c-1.16-1.2-2.59-2.27-4.29-3.2 c-0.61-0.32-1.38-0.68-2.32-1.08c-0.95-0.39-2.04-0.76-3.29-1.11c-1.25-0.35-2.63-0.62-4.16-0.8c-1.52-0.19-3.18-0.25-4.98-0.21 C389.33,282.53,388.57,282.59,387.56,282.71z"></path> <path class="st6" d="M432.49,324.77h35.58v4.08h-40.43v-48.88h4.85V324.77z"></path> <path class="st6" d="M526.96,278.76c2.01,0.21,4.21,0.71,6.61,1.49c2.4,0.78,4.81,2,7.23,3.64c2.42,1.64,4.56,3.91,6.4,6.82 c0.88,1.38,1.58,2.76,2.12,4.12c0.53,1.36,0.93,2.64,1.21,3.84c0.28,1.2,0.45,2.28,0.52,3.26c0.07,0.97,0.11,1.75,0.11,2.35 c0,0.69-0.06,1.63-0.17,2.8c-0.12,1.18-0.36,2.47-0.73,3.88c-0.37,1.4-0.93,2.91-1.69,4.5c-0.76,1.59-1.77,3.15-3.01,4.67 c-1.99,2.35-4.15,4.21-6.48,5.57c-2.33,1.36-4.59,2.37-6.78,3.01c-2.19,0.65-4.2,1.05-6.03,1.21c-1.83,0.16-3.22,0.24-4.19,0.24 c-0.65,0-1.57-0.04-2.77-0.11c-1.2-0.07-2.55-0.24-4.05-0.52c-1.5-0.28-3.1-0.7-4.78-1.28c-1.68-0.58-3.37-1.35-5.05-2.32 c-1.69-0.97-3.29-2.19-4.81-3.67c-1.52-1.48-2.86-3.26-4.01-5.33c-0.74-1.34-1.33-2.64-1.77-3.91 c-0.44-1.27-0.76-2.45-0.97-3.53c-0.21-1.08-0.33-2.08-0.38-2.98c-0.04-0.89-0.07-1.62-0.07-2.18c0-0.92,0.1-2.27,0.31-4.05 c0.21-1.78,0.78-3.77,1.7-5.99c1.15-2.72,2.68-5.09,4.57-7.1c1.89-2.01,4.02-3.65,6.4-4.95c2.38-1.29,4.94-2.25,7.69-2.88 c2.74-0.62,5.53-0.93,8.34-0.93C523.44,278.45,524.96,278.55,526.96,278.76z M518.62,282.71c-1.01,0.12-2.16,0.32-3.43,0.63 c-1.27,0.3-2.62,0.75-4.05,1.36c-1.43,0.6-2.82,1.39-4.16,2.37c-0.69,0.51-1.52,1.25-2.49,2.22c-0.97,0.97-1.89,2.18-2.77,3.62 c-0.88,1.44-1.63,3.12-2.25,5.04c-0.63,1.93-0.94,4.12-0.94,6.58c0,0.65,0.08,1.76,0.24,3.34c0.16,1.58,0.61,3.27,1.35,5.08 c0.83,2.09,1.87,3.86,3.12,5.32c1.25,1.46,2.6,2.68,4.05,3.65c1.45,0.97,2.95,1.74,4.5,2.29c1.55,0.55,3,0.97,4.36,1.25 c1.36,0.28,2.58,0.45,3.67,0.52c1.08,0.07,1.93,0.1,2.53,0.1c0.6,0,1.47-0.04,2.6-0.1c1.13-0.07,2.38-0.26,3.77-0.56 c1.39-0.3,2.86-0.78,4.43-1.43c1.57-0.65,3.11-1.53,4.64-2.64c1.89-1.43,3.38-3.01,4.47-4.73c1.08-1.71,1.89-3.38,2.42-5.01 c0.53-1.62,0.85-3.11,0.97-4.45c0.12-1.34,0.18-2.41,0.18-3.2c0-0.56-0.03-1.26-0.07-2.12c-0.05-0.86-0.21-1.91-0.48-3.17 c-0.18-0.69-0.46-1.58-0.83-2.64c-0.37-1.07-0.93-2.22-1.66-3.44c-0.74-1.23-1.69-2.45-2.84-3.65c-1.16-1.2-2.59-2.27-4.29-3.2 c-0.61-0.32-1.38-0.68-2.32-1.08c-0.95-0.39-2.04-0.76-3.29-1.11c-1.25-0.35-2.63-0.62-4.16-0.8c-1.52-0.19-3.18-0.25-4.99-0.21 C520.39,282.53,519.63,282.59,518.62,282.71z"></path> <path class="st6" d="M603.7,279.97v4.01h-40.22v17.38h36.01v4.22h-36.01v23.26h-4.78v-48.88H603.7z"></path> <path class="st6" d="M678.41,280.04v4.01h-42.02v17.17h38.84v4.09h-38.84v19.46h44.03v4.08h-48.81v-48.81H678.41z"></path> <path class="st6" d="M740.3,328.85h-4.36l-41.89-42.65v42.65h-4.36v-48.88h4.36l41.89,42.86v-42.86h4.36V328.85z"></path> <path class="st6" d="M796.1,294.03c-0.37-0.74-0.7-1.33-1-1.77c-0.3-0.44-0.71-0.98-1.21-1.63c-1.11-1.38-2.38-2.57-3.81-3.56 c-1.43-0.99-2.95-1.8-4.54-2.42c-1.59-0.63-3.26-1.07-4.99-1.35c-1.73-0.28-3.45-0.42-5.16-0.42c-0.78,0-1.98,0.07-3.6,0.21 c-1.62,0.13-3.42,0.6-5.4,1.38c-2.13,0.83-4.02,1.91-5.68,3.22c-1.66,1.32-3.06,2.84-4.19,4.57c-1.13,1.73-2,3.62-2.59,5.68 c-0.61,2.05-0.9,4.21-0.9,6.47c0,0.55,0.04,1.35,0.11,2.39c0.07,1.04,0.26,2.18,0.59,3.43c0.32,1.25,0.79,2.58,1.42,3.98 c0.62,1.41,1.49,2.76,2.6,4.05c0.64,0.79,1.49,1.62,2.53,2.5c1.04,0.87,2.31,1.69,3.81,2.46c1.5,0.76,3.23,1.4,5.19,1.9 c1.96,0.51,4.19,0.76,6.68,0.76c0.65,0,1.6-0.04,2.88-0.14c1.27-0.09,2.71-0.37,4.33-0.83c1.43-0.42,2.84-0.99,4.22-1.73 c1.39-0.74,2.67-1.6,3.84-2.6c1.18-0.99,2.22-2.1,3.12-3.32c0.9-1.22,1.63-2.57,2.18-4.05c0.46-1.25,0.75-2.4,0.87-3.46 c0.11-1.06,0.2-1.82,0.24-2.28h-25.96v-4.09h30.19v25.48h-4.22v-9.94c-0.74,1.29-1.44,2.32-2.11,3.11 c-0.67,0.78-1.23,1.38-1.69,1.79c-0.65,0.6-1.52,1.27-2.63,2c-1.1,0.74-2.42,1.44-3.94,2.11c-1.52,0.67-3.27,1.22-5.23,1.66 c-1.96,0.44-4.12,0.66-6.47,0.66c-0.83,0-1.95-0.06-3.36-0.18c-1.41-0.11-3.08-0.43-5.02-0.93c-0.83-0.19-1.91-0.51-3.22-0.97 c-1.31-0.46-2.71-1.14-4.18-2.04c-1.48-0.9-2.97-2.07-4.47-3.5c-1.5-1.43-2.85-3.21-4.05-5.33c-0.28-0.51-0.61-1.17-1-1.97 c-0.39-0.81-0.75-1.74-1.07-2.8c-0.32-1.06-0.6-2.26-0.83-3.6c-0.24-1.34-0.35-2.79-0.35-4.36c0-0.74,0.05-1.73,0.14-2.98 c0.09-1.25,0.35-2.63,0.76-4.15c0.42-1.52,1.01-3.12,1.8-4.78c0.78-1.66,1.87-3.3,3.26-4.92c0.78-0.92,1.8-1.92,3.04-3.01 c1.25-1.09,2.77-2.09,4.57-3.01c1.8-0.92,3.88-1.7,6.23-2.32c2.36-0.62,5.03-0.93,8.04-0.93c0.6,0,1.6,0.05,3.01,0.14 c1.41,0.09,3,0.34,4.78,0.73c1.78,0.39,3.64,0.99,5.61,1.8c1.96,0.81,3.82,1.93,5.57,3.36c1.66,1.34,2.95,2.67,3.88,3.98 c0.92,1.32,1.59,2.3,2.01,2.94L796.1,294.03z"></path> <path class="st6" d="M817.98,324.77h35.58v4.08h-40.43v-48.88h4.85V324.77z"></path> <path class="st6" d="M862.98,279.97v48.88h-4.77v-48.88H862.98z"></path> <path class="st6" d="M913.66,290.49c-0.51-0.64-0.99-1.24-1.46-1.79c-1.1-1.16-2.35-2.11-3.74-2.88 c-1.38-0.76-2.83-1.37-4.33-1.84c-1.5-0.46-3.05-0.78-4.64-0.97c-1.59-0.18-3.15-0.28-4.67-0.28c-0.37,0-1,0.01-1.9,0.04 c-0.9,0.03-1.95,0.13-3.15,0.31c-1.2,0.19-2.47,0.48-3.81,0.88c-1.34,0.39-2.6,0.94-3.81,1.64c-0.69,0.42-1.36,0.92-2.01,1.5 c-0.65,0.58-1.17,1.25-1.59,1.99c-0.14,0.23-0.32,0.66-0.55,1.29c-0.23,0.63-0.35,1.36-0.35,2.2c0,0.89,0.15,1.63,0.45,2.23 c0.3,0.61,0.66,1.12,1.08,1.53c0.41,0.42,0.84,0.75,1.28,0.98c0.44,0.23,0.77,0.42,1,0.56c1.01,0.51,2.21,0.88,3.57,1.12 c1.36,0.23,3.2,0.51,5.51,0.84c5.31,0.79,9.71,1.43,13.22,1.94c3.51,0.51,6.34,1.22,8.52,2.14c2.21,0.92,3.98,2.28,5.29,4.05 c1.32,1.78,1.97,3.89,1.97,6.33c0,0.69-0.13,1.71-0.38,3.04c-0.26,1.34-0.89,2.75-1.9,4.22c-0.79,1.11-1.77,2.17-2.98,3.19 c-1.2,1.02-2.69,1.93-4.46,2.74c-1.78,0.81-3.84,1.44-6.16,1.9c-2.33,0.46-5,0.69-8,0.69c-0.69,0-1.38-0.01-2.08-0.04 c-0.69-0.02-1.41-0.05-2.14-0.1c-0.51-0.05-1.47-0.14-2.88-0.28c-1.41-0.14-3.01-0.44-4.81-0.9c-1.8-0.46-3.66-1.17-5.57-2.11 c-1.92-0.95-3.64-2.22-5.16-3.84c-0.92-0.97-1.68-1.96-2.29-2.97c-0.6-1.02-1.22-2.1-1.87-3.26l5.12-1.94 c0.14,0.41,0.35,0.91,0.62,1.49c0.28,0.58,0.63,1.21,1.08,1.9c0.43,0.69,0.99,1.4,1.66,2.11c0.67,0.72,1.49,1.4,2.46,2.04 c1.43,0.92,3.39,1.75,5.89,2.49c2.49,0.74,5.7,1.11,9.63,1.11c0.46,0,1.2-0.01,2.21-0.04c1.01-0.02,2.17-0.14,3.46-0.34 c1.29-0.21,2.67-0.53,4.12-0.97c1.46-0.44,2.85-1.05,4.19-1.84c1.47-0.92,2.71-2.04,3.7-3.36c0.99-1.31,1.49-2.87,1.49-4.67 c0-1.43-0.27-2.55-0.83-3.36c-0.55-0.8-1.04-1.39-1.46-1.77c-0.78-0.64-1.83-1.18-3.15-1.62c-1.32-0.44-2.71-0.81-4.16-1.11 c-1.45-0.3-2.89-0.54-4.29-0.73c-1.41-0.18-2.55-0.35-3.43-0.49c-1.47-0.23-2.95-0.42-4.43-0.59c-1.48-0.16-2.96-0.36-4.43-0.59 c-1.57-0.23-3.24-0.51-5.02-0.83c-1.78-0.32-3.38-0.85-4.81-1.59c-0.42-0.19-0.96-0.5-1.63-0.94c-0.67-0.44-1.32-1.03-1.94-1.76 c-0.63-0.74-1.16-1.63-1.59-2.67c-0.44-1.04-0.66-2.27-0.66-3.7c0-2.36,0.67-4.48,2.01-6.37c1.34-1.89,3-3.39,4.98-4.5 c2.22-1.2,4.73-2.05,7.55-2.56c2.82-0.51,5.47-0.76,7.96-0.76c0.74,0,1.84,0.05,3.29,0.13c1.46,0.09,3.08,0.33,4.88,0.71 c1.8,0.38,3.69,0.97,5.68,1.77c1.98,0.8,3.9,1.96,5.74,3.48c0.88,0.74,1.58,1.4,2.11,1.98c0.53,0.58,0.93,1.05,1.21,1.42 L913.66,290.49z"></path> <path class="st6" d="M932.35,300.88h41.06v-20.91h4.78v48.88h-4.78v-23.88h-41.06v23.88h-4.78v-48.88h4.78V300.88z"></path> </g> </g> <g> <g> <path class="st3" d="M1186.42,146.95c7.67,8.79,11.5,19.41,11.5,31.87c0,5.32-0.78,10.33-2.22,15.04l29.35,14.19 c3.46-9.07,5.2-18.92,5.2-29.54c0-21.24-7.05-39.32-21.15-54.24c-12.33-13.2-27.15-20.7-44.48-22.53v32.09 C1173.12,135.54,1180.39,139.9,1186.42,146.95z"></path> <path class="st4" d="M1116.96,195.81c-1.9-5.27-2.86-10.93-2.86-17c0-12.46,3.83-23.14,11.49-32.03 c6.08-6.93,13.35-11.24,21.81-12.94v-32.1c-17.36,1.85-32.25,9.34-44.64,22.52c-14,15.01-21,33.2-21,54.55 c0,11.28,2.01,21.65,5.93,31.16L1116.96,195.81z"></path> <path class="st5" d="M1187.68,209.09c-0.42,0.53-0.81,1.07-1.26,1.59c-8.07,9.5-18.18,14.25-30.34,14.25 c-12.05,0-22.16-4.75-30.34-14.25l-29.69,14.36c2.04,2.86,4.22,5.65,6.71,8.32c14.3,15.52,32.08,23.29,53.32,23.29 c21.15,0,38.87-7.81,53.18-23.44c2.92-3.16,5.47-6.49,7.78-9.92L1187.68,209.09z"></path> </g> </g> </g> </g> <g id="fara_o" class="st0"> <g class="st1"> <path class="st2" d="M185.95,181.09c0,20.64-6.54,38.57-19.61,53.79c-13.69,16.04-30.7,24.05-51.03,24.05 c-12.67,0-23.75-3.93-33.26-11.8c-4.28-3.98-8.58-8.02-12.87-12.1c-0.62,0.31-1.02,1.12-1.22,2.46 c-0.11,0.61-0.15,6.33-0.15,17.16l-0.16,67.87c0,3.27-1.17,4.91-3.52,4.91c-15.74,0-25.03-0.21-27.89-0.62 c-2.34-0.3-3.52-1.63-3.52-3.98c0-13.08,0.1-57.36,0.31-83.51c0.2-26.15,0.31-45.76,0.31-58.83c0-24-1.53-46.53-4.59-67.57 c-0.21-1.22-0.31-2.04-0.31-2.45c0-1.12,0.5-1.84,1.53-2.15c3.89-0.21,9.55-0.76,17.01-1.69c10.01-1.84,15.64-2.76,16.86-2.76 c1.74,0,2.86,3.06,3.37,9.19c0.31,4.09,0.56,8.12,0.77,12.11c0,0.82,0.3,1.63,0.91,2.45c0.71-0.41,1.53-1.12,2.46-2.14 c14.3-14.61,28.76-21.91,43.36-21.91c20.23,0,37.29,7.92,51.19,23.75C179.26,142.53,185.95,160.46,185.95,181.09z M150.09,180.48 c0-12.25-3.83-23.04-11.49-32.33c-8.07-9.91-18.13-14.86-30.18-14.86c-11.85,0-21.55,5.11-29.11,15.32 c-6.96,9.19-10.43,19.92-10.43,32.18c0,12.46,3.58,23.29,10.72,32.49c7.87,9.91,17.88,14.86,30.03,14.86 c11.65,0,21.45-5.16,29.42-15.47C146.41,203.06,150.09,192.33,150.09,180.48z"></path> <path class="st2" d="M286.06,103.6c0,11.23-0.77,21.45-2.3,30.64c-0.31,2.36-1.33,3.52-3.07,3.52c-2.14,0-5.38-0.23-9.73-0.68 c-4.34-0.46-7.63-0.69-9.88-0.69c-12.88,0-21.09,3.63-24.67,10.87c-2.14,4.39-3.22,13.54-3.22,27.43v16.85 c0,5.73,0.24,14.41,0.69,26.05c0.46,11.64,0.69,20.33,0.69,26.05c0,2.75-1.18,4.13-3.52,4.13c-3.17,0-7.97-0.05-14.41-0.15 c-6.44-0.11-11.24-0.16-14.41-0.16c-2.34,0-3.52-1.27-3.52-3.82c0-8.28,0.13-20.75,0.39-37.4c0.25-16.65,0.38-29.16,0.38-37.54 c0-25.23-2.36-45.51-7.05-60.83c-0.21-0.81-0.31-1.43-0.31-1.84c0-1.22,0.66-2.1,1.99-2.61c3.78-0.41,9.1-1.02,15.94-1.84 c11.04-2.05,16.14-3.06,15.33-3.06c1.63,0,2.71,3.01,3.22,9.03c0.51,6.04,1.43,9.05,2.76,9.05c0.2,0,0.46-0.1,0.76-0.31 c4.19-2.65,8.38-5.31,12.57-7.96c4.6-2.76,9.29-4.8,14.1-6.13c3.98-1.23,9.09-1.84,15.32-1.84 C282.07,100.38,286.06,101.45,286.06,103.6z"></path> <path class="st2" d="M611.32,165.19c0,7.56-3.27,12.62-9.8,15.17c-4.4,1.64-36.02,4.65-94.86,9.04c1.33,9,6.29,16.66,14.86,22.99 c8.17,6.03,16.96,9.04,26.36,9.04c16.13,0,30.95-5.21,44.43-15.63c1.64-1.32,3.27-2.65,4.9-3.98c0.82,0,1.35,0.1,1.62,0.3 c0.25,0.21,2.16,3.76,5.74,10.65c3.58,6.89,5.37,10.6,5.37,11.11c0,0.61-0.82,1.79-2.46,3.53c-15.02,15.94-34.26,23.9-57.76,23.9 c-23.71,0-42.6-7.07-56.7-21.22c-14.1-14.14-21.15-33.02-21.15-56.62c0-21.04,6.75-39.38,20.23-55.01 c14.2-16.24,31.62-24.37,52.26-24.37c19.2,0,35.24,7.05,48.11,21.14C605.04,128.93,611.32,145.58,611.32,165.19z M574.86,155.85 c0-8.48-3.35-15.99-10.04-22.53c-6.7-6.53-14.23-9.81-22.6-9.81c-9.4,0-17.75,3.78-25.06,11.34 c-7.31,7.56-10.96,16.03-10.96,25.44c0,2.14,1.84,3.21,5.52,3.21c15.11,0,33.2-1.53,54.24-4.59 C571.89,158.09,574.86,157.07,574.86,155.85z"></path> <path class="st2" d="M709.13,103.6c0,11.23-0.77,21.45-2.3,30.64c-0.31,2.36-1.33,3.52-3.06,3.52c-2.14,0-5.39-0.23-9.73-0.68 c-4.35-0.46-7.63-0.69-9.88-0.69c-12.88,0-21.09,3.63-24.67,10.87c-2.15,4.39-3.22,13.54-3.22,27.43v16.85 c0,5.73,0.23,14.41,0.69,26.05c0.46,11.64,0.69,20.33,0.69,26.05c0,2.75-1.17,4.13-3.52,4.13c-3.17,0-7.98-0.05-14.41-0.15 c-6.43-0.11-11.24-0.16-14.4-0.16c-2.35,0-3.53-1.27-3.53-3.82c0-8.28,0.13-20.75,0.39-37.4c0.25-16.65,0.38-29.16,0.38-37.54 c0-25.23-2.35-45.51-7.05-60.83c-0.2-0.81-0.31-1.43-0.31-1.84c0-1.22,0.67-2.1,1.99-2.61c3.78-0.41,9.09-1.02,15.95-1.84 c11.03-2.05,16.13-3.06,15.31-3.06c1.64,0,2.71,3.01,3.22,9.03c0.51,6.04,1.42,9.05,2.76,9.05c0.2,0,0.46-0.1,0.77-0.31 c4.18-2.65,8.37-5.31,12.56-7.96c4.6-2.76,9.29-4.8,14.1-6.13c3.98-1.23,9.08-1.84,15.32-1.84 C705.15,100.38,709.13,101.45,709.13,103.6z"></path> <path class="st2" d="M856.58,108.5c0,7.46-0.31,18.72-0.92,33.78c-0.62,15.07-0.92,26.38-0.92,33.94c0,7.45,0.23,18.61,0.7,33.48 c0.46,14.86,0.68,26.03,0.68,33.48c0,2.05-0.97,3.37-2.91,3.99c-0.82,0.21-11.18,0.3-31.1,0.3c-1.23,0-1.97-3.82-2.22-11.49 c-0.26-7.66-0.85-11.49-1.76-11.49c-0.52,0-1.28,0.46-2.3,1.38c-17.06,14.81-33.92,22.22-50.56,22.22 c-22.58,0-37.49-8.17-44.75-24.52c-4.5-10.11-6.74-28.3-6.74-54.55c0-23.7,1.89-43.77,5.66-60.22c0.92-3.98,2.61-5.97,5.06-5.97 c2.96,0,7.41,0.05,13.33,0.15c5.93,0.1,10.37,0.15,13.34,0.15c2.04,0,3.06,1.13,3.06,3.37c0,3.99-0.66,10.63-2,19.92 c-1.43,9.91-2.2,16.91-2.3,20.99c-0.3,6.13-0.46,12.88-0.46,20.23c0,17.88,1.27,29.88,3.83,36c4.39,11.04,14.14,16.55,29.27,16.55 c6.43,0,14.04-3.17,22.83-9.5c9.29-6.64,14.09-13.03,14.4-19.16c0.51-7.66,0.76-34.62,0.76-80.9c0-5,2.09-7.51,6.28-7.51h25.28 C855.1,103.14,856.58,104.93,856.58,108.5z"></path> <path class="st2" d="M1023.79,33.72c0,13.18-0.58,32.92-1.76,59.22c-1.17,26.3-1.76,46-1.76,59.07c0,40.36,0.87,70.89,2.6,91.64 l0.15,1.99c0.1,1.03-1.28,1.68-4.14,1.99c-1.94,0.2-4.7,0.2-8.28,0c-4.29-0.31-6.28-0.46-5.98-0.46c-1.54,0-3.79,0.15-6.75,0.46 c-2.96,0.3-5.21,0.46-6.74,0.46c-1.43,0-2.27-3.55-2.53-10.65c-0.26-7.1-0.64-10.7-1.15-10.8c-0.61,0.31-1.37,0.97-2.3,1.99 c-13.99,15.12-30.08,22.68-48.26,22.68c-20.64,0-37.6-7.86-50.88-23.6c-12.56-14.81-18.85-32.69-18.85-53.63 c0-21.76,6.34-40.04,19-54.85c13.28-15.53,30.6-23.29,51.95-23.29c12.87,0,24.1,3.78,33.72,11.34c4.38,3.78,8.73,7.61,13.03,11.49 c0.82-0.31,1.22-1.02,1.22-2.15V66.97c0-3.37-0.16-8.48-0.46-15.32c-0.31-6.85-0.47-12.01-0.47-15.48c0-2.45,0.82-3.68,2.46-3.68 c3.78,0,9.4-0.33,16.85-1c7.46-0.67,13.03-1,16.71-1C1022.92,30.5,1023.79,31.58,1023.79,33.72z M985.48,173.16 c0-12.26-3.77-23.03-11.33-32.33c-8.07-9.91-18.08-14.86-30.03-14.86c-12.57,0-22.94,4.9-31.11,14.71 c-7.76,9.19-11.64,20.23-11.64,33.09c0,12.25,4.03,22.94,12.1,32.03c8.27,9.6,18.5,14.4,30.65,14.4 c12.25,0,22.37-4.86,30.34-14.55C981.81,196.55,985.48,185.73,985.48,173.16z"></path> <path class="st2" d="M1075.14,109.94c0,7.87-0.48,19.74-1.45,35.62c-0.98,15.89-1.46,27.81-1.46,35.78 c0,7.46,0.16,18.62,0.46,33.49c0.31,14.86,0.46,25.97,0.46,33.33c0,2.14-0.92,3.22-2.75,3.22h-29.88c-2.15,0-3.22-2.09-3.22-6.29 c0-7.05,0.17-17.64,0.54-31.79c0.35-14.15,0.53-24.8,0.53-31.95c0-7.96-0.59-19.92-1.76-35.85c-1.18-15.93-1.76-27.88-1.76-35.85 c0-1.74,1.08-2.61,3.22-2.61c1.84,0,4.67,0.25,8.5,0.77c3.84,0.51,6.72,0.77,8.67,0.77c1.94,0,4.83-0.26,8.65-0.77 c3.83-0.51,6.72-0.77,8.66-0.77C1074.27,107.03,1075.14,108,1075.14,109.94z"></path> <g> <g> <path class="st3" d="M1186.42,146.95c7.67,8.79,11.5,19.41,11.5,31.87c0,5.32-0.78,10.33-2.22,15.04l29.35,14.19 c3.46-9.07,5.2-18.92,5.2-29.54c0-21.24-7.05-39.32-21.15-54.24c-12.33-13.2-27.15-20.7-44.48-22.53v32.09 C1173.12,135.54,1180.39,139.9,1186.42,146.95z"></path> <path class="st4" d="M1116.96,195.81c-1.9-5.27-2.86-10.93-2.86-17c0-12.46,3.83-23.14,11.49-32.03 c6.08-6.93,13.35-11.24,21.81-12.94v-32.1c-17.36,1.85-32.25,9.34-44.64,22.52c-14,15.01-21,33.2-21,54.55 c0,11.28,2.01,21.65,5.93,31.16L1116.96,195.81z"></path> <path class="st5" d="M1187.68,209.09c-0.42,0.53-0.81,1.07-1.26,1.59c-8.07,9.5-18.18,14.25-30.34,14.25 c-12.05,0-22.16-4.75-30.34-14.25l-29.69,14.36c2.04,2.86,4.22,5.65,6.71,8.32c14.3,15.52,32.08,23.29,53.32,23.29 c21.15,0,38.87-7.81,53.18-23.44c2.92-3.16,5.47-6.49,7.78-9.92L1187.68,209.09z"></path> </g> </g> </g> <g class="st1"> <path class="st2" d="M185.95,181.09c0,20.64-6.54,38.57-19.61,53.79c-13.69,16.04-30.7,24.05-51.03,24.05 c-12.67,0-23.75-3.93-33.26-11.8c-4.28-3.98-8.58-8.02-12.87-12.1c-0.62,0.31-1.02,1.12-1.22,2.46 c-0.11,0.61-0.15,6.33-0.15,17.16l-0.16,67.87c0,3.27-1.17,4.91-3.52,4.91c-15.74,0-25.03-0.21-27.89-0.62 c-2.34-0.3-3.52-1.63-3.52-3.98c0-13.08,0.1-57.36,0.31-83.51c0.2-26.15,0.31-45.76,0.31-58.83c0-24-1.53-46.53-4.59-67.57 c-0.21-1.22-0.31-2.04-0.31-2.45c0-1.12,0.5-1.84,1.53-2.15c3.89-0.21,9.55-0.76,17.01-1.69c10.01-1.84,15.64-2.76,16.86-2.76 c1.74,0,2.86,3.06,3.37,9.19c0.31,4.09,0.56,8.12,0.77,12.11c0,0.82,0.3,1.63,0.91,2.45c0.71-0.41,1.53-1.12,2.46-2.14 c14.3-14.61,28.76-21.91,43.36-21.91c20.23,0,37.29,7.92,51.19,23.75C179.26,142.53,185.95,160.46,185.95,181.09z M150.09,180.48 c0-12.25-3.83-23.04-11.49-32.33c-8.07-9.91-18.13-14.86-30.18-14.86c-11.85,0-21.55,5.11-29.11,15.32 c-6.96,9.19-10.43,19.92-10.43,32.18c0,12.46,3.58,23.29,10.72,32.49c7.87,9.91,17.88,14.86,30.03,14.86 c11.65,0,21.45-5.16,29.42-15.47C146.41,203.06,150.09,192.33,150.09,180.48z"></path> <path class="st2" d="M286.06,103.6c0,11.23-0.77,21.45-2.3,30.64c-0.31,2.36-1.33,3.52-3.07,3.52c-2.14,0-5.38-0.23-9.73-0.68 c-4.34-0.46-7.63-0.69-9.88-0.69c-12.88,0-21.09,3.63-24.67,10.87c-2.14,4.39-3.22,13.54-3.22,27.43v16.85 c0,5.73,0.24,14.41,0.69,26.05c0.46,11.64,0.69,20.33,0.69,26.05c0,2.75-1.18,4.13-3.52,4.13c-3.17,0-7.97-0.05-14.41-0.15 c-6.44-0.11-11.24-0.16-14.41-0.16c-2.34,0-3.52-1.27-3.52-3.82c0-8.28,0.13-20.75,0.39-37.4c0.25-16.65,0.38-29.16,0.38-37.54 c0-25.23-2.36-45.51-7.05-60.83c-0.21-0.81-0.31-1.43-0.31-1.84c0-1.22,0.66-2.1,1.99-2.61c3.78-0.41,9.1-1.02,15.94-1.84 c11.04-2.05,16.14-3.06,15.33-3.06c1.63,0,2.71,3.01,3.22,9.03c0.51,6.04,1.43,9.05,2.76,9.05c0.2,0,0.46-0.1,0.76-0.31 c4.19-2.65,8.38-5.31,12.57-7.96c4.6-2.76,9.29-4.8,14.1-6.13c3.98-1.23,9.09-1.84,15.32-1.84 C282.07,100.38,286.06,101.45,286.06,103.6z"></path> <path class="st2" d="M611.32,165.19c0,7.56-3.27,12.62-9.8,15.17c-4.4,1.64-36.02,4.65-94.86,9.04c1.33,9,6.29,16.66,14.86,22.99 c8.17,6.03,16.96,9.04,26.36,9.04c16.13,0,30.95-5.21,44.43-15.63c1.64-1.32,3.27-2.65,4.9-3.98c0.82,0,1.35,0.1,1.62,0.3 c0.25,0.21,2.16,3.76,5.74,10.65c3.58,6.89,5.37,10.6,5.37,11.11c0,0.61-0.82,1.79-2.46,3.53c-15.02,15.94-34.26,23.9-57.76,23.9 c-23.71,0-42.6-7.07-56.7-21.22c-14.1-14.14-21.15-33.02-21.15-56.62c0-21.04,6.75-39.38,20.23-55.01 c14.2-16.24,31.62-24.37,52.26-24.37c19.2,0,35.24,7.05,48.11,21.14C605.04,128.93,611.32,145.58,611.32,165.19z M574.86,155.85 c0-8.48-3.35-15.99-10.04-22.53c-6.7-6.53-14.23-9.81-22.6-9.81c-9.4,0-17.75,3.78-25.06,11.34 c-7.31,7.56-10.96,16.03-10.96,25.44c0,2.14,1.84,3.21,5.52,3.21c15.11,0,33.2-1.53,54.24-4.59 C571.89,158.09,574.86,157.07,574.86,155.85z"></path> <path class="st2" d="M709.13,103.6c0,11.23-0.77,21.45-2.3,30.64c-0.31,2.36-1.33,3.52-3.06,3.52c-2.14,0-5.39-0.23-9.73-0.68 c-4.35-0.46-7.63-0.69-9.88-0.69c-12.88,0-21.09,3.63-24.67,10.87c-2.15,4.39-3.22,13.54-3.22,27.43v16.85 c0,5.73,0.23,14.41,0.69,26.05c0.46,11.64,0.69,20.33,0.69,26.05c0,2.75-1.17,4.13-3.52,4.13c-3.17,0-7.98-0.05-14.41-0.15 c-6.43-0.11-11.24-0.16-14.4-0.16c-2.35,0-3.53-1.27-3.53-3.82c0-8.28,0.13-20.75,0.39-37.4c0.25-16.65,0.38-29.16,0.38-37.54 c0-25.23-2.35-45.51-7.05-60.83c-0.2-0.81-0.31-1.43-0.31-1.84c0-1.22,0.67-2.1,1.99-2.61c3.78-0.41,9.09-1.02,15.95-1.84 c11.03-2.05,16.13-3.06,15.31-3.06c1.64,0,2.71,3.01,3.22,9.03c0.51,6.04,1.42,9.05,2.76,9.05c0.2,0,0.46-0.1,0.77-0.31 c4.18-2.65,8.37-5.31,12.56-7.96c4.6-2.76,9.29-4.8,14.1-6.13c3.98-1.23,9.08-1.84,15.32-1.84 C705.15,100.38,709.13,101.45,709.13,103.6z"></path> <path class="st2" d="M856.58,108.5c0,7.46-0.31,18.72-0.92,33.78c-0.62,15.07-0.92,26.38-0.92,33.94c0,7.45,0.23,18.61,0.7,33.48 c0.46,14.86,0.68,26.03,0.68,33.48c0,2.05-0.97,3.37-2.91,3.99c-0.82,0.21-11.18,0.3-31.1,0.3c-1.23,0-1.97-3.82-2.22-11.49 c-0.26-7.66-0.85-11.49-1.76-11.49c-0.52,0-1.28,0.46-2.3,1.38c-17.06,14.81-33.92,22.22-50.56,22.22 c-22.58,0-37.49-8.17-44.75-24.52c-4.5-10.11-6.74-28.3-6.74-54.55c0-23.7,1.89-43.77,5.66-60.22c0.92-3.98,2.61-5.97,5.06-5.97 c2.96,0,7.41,0.05,13.33,0.15c5.93,0.1,10.37,0.15,13.34,0.15c2.04,0,3.06,1.13,3.06,3.37c0,3.99-0.66,10.63-2,19.92 c-1.43,9.91-2.2,16.91-2.3,20.99c-0.3,6.13-0.46,12.88-0.46,20.23c0,17.88,1.27,29.88,3.83,36c4.39,11.04,14.14,16.55,29.27,16.55 c6.43,0,14.04-3.17,22.83-9.5c9.29-6.64,14.09-13.03,14.4-19.16c0.51-7.66,0.76-34.62,0.76-80.9c0-5,2.09-7.51,6.28-7.51h25.28 C855.1,103.14,856.58,104.93,856.58,108.5z"></path> <path class="st2" d="M1023.79,33.72c0,13.18-0.58,32.92-1.76,59.22c-1.17,26.3-1.76,46-1.76,59.07c0,40.36,0.87,70.89,2.6,91.64 l0.15,1.99c0.1,1.03-1.28,1.68-4.14,1.99c-1.94,0.2-4.7,0.2-8.28,0c-4.29-0.31-6.28-0.46-5.98-0.46c-1.54,0-3.79,0.15-6.75,0.46 c-2.96,0.3-5.21,0.46-6.74,0.46c-1.43,0-2.27-3.55-2.53-10.65c-0.26-7.1-0.64-10.7-1.15-10.8c-0.61,0.31-1.37,0.97-2.3,1.99 c-13.99,15.12-30.08,22.68-48.26,22.68c-20.64,0-37.6-7.86-50.88-23.6c-12.56-14.81-18.85-32.69-18.85-53.63 c0-21.76,6.34-40.04,19-54.85c13.28-15.53,30.6-23.29,51.95-23.29c12.87,0,24.1,3.78,33.72,11.34c4.38,3.78,8.73,7.61,13.03,11.49 c0.82-0.31,1.22-1.02,1.22-2.15V66.97c0-3.37-0.16-8.48-0.46-15.32c-0.31-6.85-0.47-12.01-0.47-15.48c0-2.45,0.82-3.68,2.46-3.68 c3.78,0,9.4-0.33,16.85-1c7.46-0.67,13.03-1,16.71-1C1022.92,30.5,1023.79,31.58,1023.79,33.72z M985.48,173.16 c0-12.26-3.77-23.03-11.33-32.33c-8.07-9.91-18.08-14.86-30.03-14.86c-12.57,0-22.94,4.9-31.11,14.71 c-7.76,9.19-11.64,20.23-11.64,33.09c0,12.25,4.03,22.94,12.1,32.03c8.27,9.6,18.5,14.4,30.65,14.4 c12.25,0,22.37-4.86,30.34-14.55C981.81,196.55,985.48,185.73,985.48,173.16z"></path> <path class="st2" d="M1075.14,109.94c0,7.87-0.48,19.74-1.45,35.62c-0.98,15.89-1.46,27.81-1.46,35.78 c0,7.46,0.16,18.62,0.46,33.49c0.31,14.86,0.46,25.97,0.46,33.33c0,2.14-0.92,3.22-2.75,3.22h-29.88c-2.15,0-3.22-2.09-3.22-6.29 c0-7.05,0.17-17.64,0.54-31.79c0.35-14.15,0.53-24.8,0.53-31.95c0-7.96-0.59-19.92-1.76-35.85c-1.18-15.93-1.76-27.88-1.76-35.85 c0-1.74,1.08-2.61,3.22-2.61c1.84,0,4.67,0.25,8.5,0.77c3.84,0.51,6.72,0.77,8.67,0.77c1.94,0,4.83-0.26,8.65-0.77 c3.83-0.51,6.72-0.77,8.66-0.77C1074.27,107.03,1075.14,108,1075.14,109.94z"></path> <g> <g> <path class="st3" d="M391.86,143.41c7.67,8.79,11.5,19.41,11.5,31.87c0,5.33-0.78,10.33-2.22,15.04l29.35,14.19 c3.46-9.08,5.2-18.92,5.2-29.54c0-21.24-7.05-39.33-21.15-54.24c-12.33-13.2-27.15-20.7-44.48-22.53v32.09 C378.55,132.01,385.83,136.37,391.86,143.41z"></path> <path class="st4" d="M322.4,192.28c-1.9-5.27-2.86-10.93-2.86-17c0-12.46,3.83-23.14,11.49-32.03 c6.08-6.92,13.35-11.24,21.81-12.94v-32.1c-17.37,1.85-32.25,9.34-44.64,22.52c-14,15.01-21,33.2-21,54.55 c0,11.28,2.01,21.65,5.92,31.16L322.4,192.28z"></path> <path class="st5" d="M393.12,205.56c-0.42,0.53-0.81,1.08-1.26,1.59c-8.07,9.51-18.18,14.26-30.34,14.26 c-12.05,0-22.16-4.75-30.34-14.26l-29.69,14.36c2.04,2.86,4.22,5.66,6.71,8.32c14.3,15.53,32.08,23.29,53.32,23.29 c21.15,0,38.87-7.82,53.18-23.44c2.92-3.16,5.47-6.49,7.78-9.92L393.12,205.56z"></path> </g> </g> <path class="st4" d="M1076.13,305.6c0,12.56-7,18.85-20.99,18.85c-14.2,0-21.3-6.28-21.3-18.85c0-5.62,2.2-10.27,6.59-13.94 c4.08-3.47,8.99-5.21,14.71-5.21c5.72,0,10.65,1.79,14.79,5.36C1074.07,295.39,1076.13,299.99,1076.13,305.6z"></path> <g> <g> <path class="st6" d="M171.28,290.49c-0.51-0.64-0.99-1.24-1.45-1.79c-1.11-1.16-2.35-2.11-3.74-2.88 c-1.38-0.76-2.83-1.37-4.33-1.84c-1.5-0.46-3.05-0.78-4.64-0.97c-1.59-0.18-3.15-0.28-4.67-0.28c-0.37,0-1,0.01-1.9,0.04 c-0.9,0.03-1.95,0.13-3.15,0.31c-1.2,0.19-2.47,0.48-3.81,0.88c-1.34,0.39-2.61,0.94-3.81,1.64c-0.69,0.42-1.36,0.92-2.01,1.5 c-0.65,0.58-1.18,1.25-1.59,1.99c-0.14,0.23-0.32,0.66-0.55,1.29c-0.23,0.63-0.35,1.36-0.35,2.2c0,0.89,0.15,1.63,0.45,2.23 c0.3,0.61,0.66,1.12,1.07,1.53c0.42,0.42,0.84,0.75,1.28,0.98c0.44,0.23,0.77,0.42,1,0.56c1.01,0.51,2.21,0.88,3.57,1.12 c1.36,0.23,3.2,0.51,5.5,0.84c5.31,0.79,9.71,1.43,13.22,1.94c3.51,0.51,6.34,1.22,8.52,2.14c2.21,0.92,3.98,2.28,5.3,4.05 c1.31,1.78,1.97,3.89,1.97,6.33c0,0.69-0.13,1.71-0.38,3.04c-0.25,1.34-0.89,2.75-1.9,4.22c-0.79,1.11-1.78,2.17-2.98,3.19 c-1.2,1.02-2.69,1.93-4.46,2.74c-1.78,0.81-3.83,1.44-6.16,1.9c-2.33,0.46-5,0.69-8,0.69c-0.69,0-1.38-0.01-2.08-0.04 c-0.69-0.02-1.41-0.05-2.15-0.1c-0.51-0.05-1.46-0.14-2.87-0.28c-1.41-0.14-3.01-0.44-4.81-0.9c-1.8-0.46-3.66-1.17-5.57-2.11 c-1.92-0.95-3.64-2.22-5.16-3.84c-0.92-0.97-1.68-1.96-2.28-2.97c-0.6-1.02-1.22-2.1-1.87-3.26l5.12-1.94 c0.14,0.41,0.35,0.91,0.62,1.49c0.28,0.58,0.63,1.21,1.07,1.9c0.44,0.69,0.99,1.4,1.66,2.11c0.67,0.72,1.49,1.4,2.46,2.04 c1.43,0.92,3.39,1.75,5.89,2.49c2.49,0.74,5.7,1.11,9.62,1.11c0.46,0,1.2-0.01,2.21-0.04c1.01-0.02,2.17-0.14,3.46-0.34 c1.29-0.21,2.67-0.53,4.12-0.97c1.45-0.44,2.85-1.05,4.19-1.84c1.48-0.92,2.71-2.04,3.7-3.36c0.99-1.31,1.49-2.87,1.49-4.67 c0-1.43-0.28-2.55-0.83-3.36c-0.55-0.8-1.04-1.39-1.45-1.77c-0.78-0.64-1.83-1.18-3.15-1.62c-1.32-0.44-2.7-0.81-4.15-1.11 c-1.45-0.3-2.89-0.54-4.29-0.73c-1.41-0.18-2.55-0.35-3.43-0.49c-1.48-0.23-2.95-0.42-4.43-0.59c-1.48-0.16-2.96-0.36-4.43-0.59 c-1.57-0.23-3.24-0.51-5.02-0.83c-1.78-0.32-3.38-0.85-4.81-1.59c-0.42-0.19-0.96-0.5-1.63-0.94c-0.67-0.44-1.32-1.03-1.94-1.76 c-0.62-0.74-1.16-1.63-1.59-2.67c-0.44-1.04-0.66-2.27-0.66-3.7c0-2.36,0.67-4.48,2.01-6.37c1.34-1.89,3-3.39,4.98-4.5 c2.22-1.2,4.73-2.05,7.55-2.56c2.81-0.51,5.47-0.76,7.96-0.76c0.74,0,1.83,0.05,3.29,0.13c1.45,0.09,3.08,0.33,4.88,0.71 c1.8,0.38,3.69,0.97,5.68,1.77c1.98,0.8,3.9,1.96,5.75,3.48c0.88,0.74,1.58,1.4,2.11,1.98c0.53,0.58,0.93,1.05,1.21,1.42 L171.28,290.49z"></path> <path class="st6" d="M230.61,294.17c-0.23-0.37-0.67-1.07-1.32-2.11c-0.65-1.04-1.48-2.06-2.49-3.08 c-1.43-1.43-2.96-2.56-4.57-3.39c-1.62-0.83-3.18-1.45-4.71-1.87c-1.52-0.41-2.9-0.66-4.12-0.76c-1.22-0.09-2.13-0.13-2.73-0.13 c-0.69,0-1.66,0.06-2.91,0.17c-1.25,0.12-2.64,0.39-4.19,0.83c-1.55,0.44-3.15,1.1-4.81,1.97c-1.66,0.88-3.23,2.08-4.71,3.6 c-1.34,1.38-2.4,2.84-3.18,4.36c-0.79,1.52-1.37,2.97-1.76,4.36c-0.39,1.38-0.65,2.64-0.76,3.77c-0.11,1.13-0.17,2.02-0.17,2.66 c0,0.69,0.06,1.59,0.17,2.7c0.12,1.11,0.38,2.34,0.8,3.71c0.41,1.36,1.03,2.78,1.83,4.26c0.81,1.48,1.9,2.91,3.29,4.29 c1.48,1.48,3.05,2.64,4.71,3.5c1.66,0.85,3.25,1.49,4.78,1.9c1.52,0.42,2.9,0.67,4.12,0.76c1.22,0.09,2.18,0.14,2.87,0.14 c0.83,0,1.93-0.06,3.29-0.18c1.36-0.11,2.86-0.44,4.5-0.97c1.64-0.53,3.32-1.3,5.05-2.32c1.73-1.01,3.4-2.42,5.02-4.22 c0.51-0.6,0.97-1.17,1.39-1.73c0.41-0.56,1.01-1.46,1.8-2.7l4.22,2.01c-0.6,1.02-1.45,2.32-2.56,3.91 c-1.11,1.59-2.82,3.24-5.12,4.95c-0.79,0.55-1.72,1.15-2.8,1.8c-1.08,0.64-2.35,1.24-3.81,1.8c-1.45,0.55-3.12,1.02-4.99,1.39 c-1.87,0.37-3.96,0.55-6.27,0.55c-2.21,0-4.21-0.15-5.99-0.45c-1.78-0.3-3.36-0.69-4.74-1.18c-1.38-0.48-2.61-1.03-3.67-1.62 c-1.06-0.6-1.96-1.18-2.7-1.73c-3.32-2.49-5.88-5.55-7.68-9.18c-1.8-3.62-2.7-7.53-2.7-11.73c0-0.74,0.05-1.7,0.14-2.88 c0.09-1.18,0.33-2.48,0.73-3.91c0.39-1.43,0.96-2.93,1.7-4.5c0.74-1.56,1.78-3.14,3.12-4.71c1.85-2.26,3.85-4.04,6.02-5.33 c2.17-1.29,4.26-2.26,6.26-2.91c2.01-0.65,3.87-1.06,5.57-1.25c1.71-0.18,3.05-0.28,4.02-0.28c0.74,0,1.82,0.06,3.25,0.17 c1.43,0.12,3.02,0.42,4.78,0.9c1.75,0.48,3.6,1.19,5.54,2.11c1.94,0.92,3.78,2.19,5.54,3.81c1.11,1.02,2.04,2.03,2.8,3.04 c0.76,1.02,1.53,2.14,2.32,3.39L230.61,294.17z"></path> <path class="st6" d="M245.84,300.88h41.05v-20.91h4.78v48.88h-4.78v-23.88h-41.05v23.88h-4.78v-48.88h4.78V300.88z"></path> <path class="st6" d="M332.76,278.76c2.01,0.21,4.21,0.71,6.61,1.49c2.4,0.78,4.81,2,7.24,3.64c2.42,1.64,4.55,3.91,6.4,6.82 c0.88,1.38,1.58,2.76,2.11,4.12c0.53,1.36,0.94,2.64,1.21,3.84c0.27,1.2,0.45,2.28,0.52,3.26c0.07,0.97,0.1,1.75,0.1,2.35 c0,0.69-0.06,1.63-0.17,2.8c-0.12,1.18-0.36,2.47-0.73,3.88c-0.37,1.4-0.94,2.91-1.7,4.5c-0.76,1.59-1.76,3.15-3.01,4.67 c-1.99,2.35-4.14,4.21-6.47,5.57c-2.33,1.36-4.59,2.37-6.79,3.01c-2.19,0.65-4.2,1.05-6.02,1.21c-1.83,0.16-3.22,0.24-4.19,0.24 c-0.65,0-1.56-0.04-2.77-0.11c-1.2-0.07-2.55-0.24-4.05-0.52c-1.5-0.28-3.09-0.7-4.78-1.28c-1.68-0.58-3.37-1.35-5.05-2.32 c-1.69-0.97-3.29-2.19-4.81-3.67c-1.52-1.48-2.86-3.26-4.01-5.33c-0.74-1.34-1.33-2.64-1.76-3.91 c-0.44-1.27-0.76-2.45-0.97-3.53c-0.21-1.08-0.33-2.08-0.38-2.98c-0.05-0.89-0.07-1.62-0.07-2.18c0-0.92,0.11-2.27,0.31-4.05 c0.21-1.78,0.77-3.77,1.7-5.99c1.15-2.72,2.68-5.09,4.57-7.1c1.89-2.01,4.03-3.65,6.4-4.95c2.38-1.29,4.94-2.25,7.69-2.88 c2.75-0.62,5.53-0.93,8.34-0.93C329.24,278.45,330.75,278.55,332.76,278.76z M324.42,282.71c-1.02,0.12-2.16,0.32-3.43,0.63 c-1.27,0.3-2.62,0.75-4.05,1.36c-1.43,0.6-2.82,1.39-4.15,2.37c-0.69,0.51-1.52,1.25-2.49,2.22c-0.97,0.97-1.89,2.18-2.77,3.62 c-0.88,1.44-1.63,3.12-2.25,5.04c-0.62,1.93-0.93,4.12-0.93,6.58c0,0.65,0.08,1.76,0.24,3.34c0.16,1.58,0.61,3.27,1.35,5.08 c0.83,2.09,1.87,3.86,3.12,5.32c1.24,1.46,2.6,2.68,4.05,3.65c1.45,0.97,2.95,1.74,4.5,2.29c1.55,0.55,3,0.97,4.36,1.25 c1.36,0.28,2.58,0.45,3.67,0.52c1.08,0.07,1.93,0.1,2.53,0.1c0.6,0,1.47-0.04,2.6-0.1c1.13-0.07,2.39-0.26,3.77-0.56 c1.39-0.3,2.86-0.78,4.43-1.43c1.57-0.65,3.12-1.53,4.64-2.64c1.89-1.43,3.38-3.01,4.46-4.73c1.08-1.71,1.89-3.38,2.42-5.01 c0.53-1.62,0.85-3.11,0.97-4.45c0.12-1.34,0.17-2.41,0.17-3.2c0-0.56-0.02-1.26-0.07-2.12c-0.04-0.86-0.21-1.91-0.48-3.17 c-0.19-0.69-0.46-1.58-0.83-2.64c-0.37-1.07-0.92-2.22-1.66-3.44c-0.74-1.23-1.69-2.45-2.84-3.65c-1.15-1.2-2.58-2.27-4.29-3.2 c-0.6-0.32-1.37-0.68-2.32-1.08c-0.95-0.39-2.04-0.76-3.29-1.11c-1.24-0.35-2.63-0.62-4.16-0.8c-1.52-0.19-3.18-0.25-4.98-0.21 C326.2,282.53,325.43,282.59,324.42,282.71z"></path> <path class="st6" d="M395.9,278.76c2.01,0.21,4.21,0.71,6.61,1.49c2.4,0.78,4.81,2,7.24,3.64c2.42,1.64,4.56,3.91,6.4,6.82 c0.87,1.38,1.58,2.76,2.11,4.12c0.53,1.36,0.93,2.64,1.21,3.84c0.28,1.2,0.45,2.28,0.52,3.26c0.07,0.97,0.11,1.75,0.11,2.35 c0,0.69-0.06,1.63-0.17,2.8c-0.12,1.18-0.36,2.47-0.73,3.88c-0.37,1.4-0.93,2.91-1.69,4.5c-0.76,1.59-1.77,3.15-3.01,4.67 c-1.99,2.35-4.15,4.21-6.48,5.57c-2.33,1.36-4.59,2.37-6.78,3.01c-2.19,0.65-4.2,1.05-6.03,1.21c-1.82,0.16-3.22,0.24-4.19,0.24 c-0.65,0-1.57-0.04-2.77-0.11c-1.2-0.07-2.55-0.24-4.05-0.52c-1.5-0.28-3.1-0.7-4.78-1.28c-1.68-0.58-3.37-1.35-5.05-2.32 c-1.69-0.97-3.29-2.19-4.81-3.67c-1.52-1.48-2.86-3.26-4.01-5.33c-0.74-1.34-1.33-2.64-1.76-3.91 c-0.44-1.27-0.76-2.45-0.97-3.53c-0.21-1.08-0.34-2.08-0.38-2.98c-0.04-0.89-0.07-1.62-0.07-2.18c0-0.92,0.1-2.27,0.31-4.05 c0.21-1.78,0.78-3.77,1.7-5.99c1.15-2.72,2.68-5.09,4.57-7.1c1.89-2.01,4.03-3.65,6.4-4.95c2.38-1.29,4.94-2.25,7.69-2.88 c2.74-0.62,5.53-0.93,8.34-0.93C392.38,278.45,393.9,278.55,395.9,278.76z M387.56,282.71c-1.01,0.12-2.16,0.32-3.43,0.63 c-1.27,0.3-2.62,0.75-4.05,1.36c-1.43,0.6-2.82,1.39-4.16,2.37c-0.69,0.51-1.52,1.25-2.49,2.22c-0.97,0.97-1.89,2.18-2.77,3.62 c-0.88,1.44-1.63,3.12-2.25,5.04c-0.63,1.93-0.94,4.12-0.94,6.58c0,0.65,0.08,1.76,0.24,3.34c0.16,1.58,0.61,3.27,1.35,5.08 c0.83,2.09,1.87,3.86,3.12,5.32c1.25,1.46,2.6,2.68,4.05,3.65c1.45,0.97,2.95,1.74,4.5,2.29c1.55,0.55,3,0.97,4.36,1.25 c1.36,0.28,2.58,0.45,3.67,0.52c1.08,0.07,1.92,0.1,2.53,0.1c0.6,0,1.47-0.04,2.6-0.1c1.13-0.07,2.38-0.26,3.77-0.56 c1.38-0.3,2.86-0.78,4.43-1.43c1.57-0.65,3.11-1.53,4.64-2.64c1.89-1.43,3.38-3.01,4.47-4.73c1.08-1.71,1.89-3.38,2.42-5.01 c0.53-1.62,0.85-3.11,0.97-4.45c0.12-1.34,0.18-2.41,0.18-3.2c0-0.56-0.03-1.26-0.07-2.12c-0.04-0.86-0.2-1.91-0.48-3.17 c-0.18-0.69-0.46-1.58-0.83-2.64c-0.37-1.07-0.93-2.22-1.66-3.44c-0.74-1.23-1.69-2.45-2.84-3.65c-1.16-1.2-2.59-2.27-4.29-3.2 c-0.61-0.32-1.38-0.68-2.32-1.08c-0.95-0.39-2.04-0.76-3.29-1.11c-1.25-0.35-2.63-0.62-4.16-0.8c-1.52-0.19-3.18-0.25-4.98-0.21 C389.33,282.53,388.57,282.59,387.56,282.71z"></path> <path class="st6" d="M432.49,324.77h35.58v4.08h-40.43v-48.88h4.85V324.77z"></path> <path class="st6" d="M526.96,278.76c2.01,0.21,4.21,0.71,6.61,1.49c2.4,0.78,4.81,2,7.23,3.64c2.42,1.64,4.56,3.91,6.4,6.82 c0.88,1.38,1.58,2.76,2.12,4.12c0.53,1.36,0.93,2.64,1.21,3.84c0.28,1.2,0.45,2.28,0.52,3.26c0.07,0.97,0.11,1.75,0.11,2.35 c0,0.69-0.06,1.63-0.17,2.8c-0.12,1.18-0.36,2.47-0.73,3.88c-0.37,1.4-0.93,2.91-1.69,4.5c-0.76,1.59-1.77,3.15-3.01,4.67 c-1.99,2.35-4.15,4.21-6.48,5.57c-2.33,1.36-4.59,2.37-6.78,3.01c-2.19,0.65-4.2,1.05-6.03,1.21c-1.83,0.16-3.22,0.24-4.19,0.24 c-0.65,0-1.57-0.04-2.77-0.11c-1.2-0.07-2.55-0.24-4.05-0.52c-1.5-0.28-3.1-0.7-4.78-1.28c-1.68-0.58-3.37-1.35-5.05-2.32 c-1.69-0.97-3.29-2.19-4.81-3.67c-1.52-1.48-2.86-3.26-4.01-5.33c-0.74-1.34-1.33-2.64-1.77-3.91 c-0.44-1.27-0.76-2.45-0.97-3.53c-0.21-1.08-0.33-2.08-0.38-2.98c-0.04-0.89-0.07-1.62-0.07-2.18c0-0.92,0.1-2.27,0.31-4.05 c0.21-1.78,0.78-3.77,1.7-5.99c1.15-2.72,2.68-5.09,4.57-7.1c1.89-2.01,4.02-3.65,6.4-4.95c2.38-1.29,4.94-2.25,7.69-2.88 c2.74-0.62,5.53-0.93,8.34-0.93C523.44,278.45,524.96,278.55,526.96,278.76z M518.62,282.71c-1.01,0.12-2.16,0.32-3.43,0.63 c-1.27,0.3-2.62,0.75-4.05,1.36c-1.43,0.6-2.82,1.39-4.16,2.37c-0.69,0.51-1.52,1.25-2.49,2.22c-0.97,0.97-1.89,2.18-2.77,3.62 c-0.88,1.44-1.63,3.12-2.25,5.04c-0.63,1.93-0.94,4.12-0.94,6.58c0,0.65,0.08,1.76,0.24,3.34c0.16,1.58,0.61,3.27,1.35,5.08 c0.83,2.09,1.87,3.86,3.12,5.32c1.25,1.46,2.6,2.68,4.05,3.65c1.45,0.97,2.95,1.74,4.5,2.29c1.55,0.55,3,0.97,4.36,1.25 c1.36,0.28,2.58,0.45,3.67,0.52c1.08,0.07,1.93,0.1,2.53,0.1c0.6,0,1.47-0.04,2.6-0.1c1.13-0.07,2.38-0.26,3.77-0.56 c1.39-0.3,2.86-0.78,4.43-1.43c1.57-0.65,3.11-1.53,4.64-2.64c1.89-1.43,3.38-3.01,4.47-4.73c1.08-1.71,1.89-3.38,2.42-5.01 c0.53-1.62,0.85-3.11,0.97-4.45c0.12-1.34,0.18-2.41,0.18-3.2c0-0.56-0.03-1.26-0.07-2.12c-0.05-0.86-0.21-1.91-0.48-3.17 c-0.18-0.69-0.46-1.58-0.83-2.64c-0.37-1.07-0.93-2.22-1.66-3.44c-0.74-1.23-1.69-2.45-2.84-3.65c-1.16-1.2-2.59-2.27-4.29-3.2 c-0.61-0.32-1.38-0.68-2.32-1.08c-0.95-0.39-2.04-0.76-3.29-1.11c-1.25-0.35-2.63-0.62-4.16-0.8c-1.52-0.19-3.18-0.25-4.99-0.21 C520.39,282.53,519.63,282.59,518.62,282.71z"></path> <path class="st6" d="M603.7,279.97v4.01h-40.22v17.38h36.01v4.22h-36.01v23.26h-4.78v-48.88H603.7z"></path> <path class="st6" d="M678.41,280.04v4.01h-42.02v17.17h38.84v4.09h-38.84v19.46h44.03v4.08h-48.81v-48.81H678.41z"></path> <path class="st6" d="M740.3,328.85h-4.36l-41.89-42.65v42.65h-4.36v-48.88h4.36l41.89,42.86v-42.86h4.36V328.85z"></path> <path class="st6" d="M796.1,294.03c-0.37-0.74-0.7-1.33-1-1.77c-0.3-0.44-0.71-0.98-1.21-1.63c-1.11-1.38-2.38-2.57-3.81-3.56 c-1.43-0.99-2.95-1.8-4.54-2.42c-1.59-0.63-3.26-1.07-4.99-1.35c-1.73-0.28-3.45-0.42-5.16-0.42c-0.78,0-1.98,0.07-3.6,0.21 c-1.62,0.13-3.42,0.6-5.4,1.38c-2.13,0.83-4.02,1.91-5.68,3.22c-1.66,1.32-3.06,2.84-4.19,4.57c-1.13,1.73-2,3.62-2.59,5.68 c-0.61,2.05-0.9,4.21-0.9,6.47c0,0.55,0.04,1.35,0.11,2.39c0.07,1.04,0.26,2.18,0.59,3.43c0.32,1.25,0.79,2.58,1.42,3.98 c0.62,1.41,1.49,2.76,2.6,4.05c0.64,0.79,1.49,1.62,2.53,2.5c1.04,0.87,2.31,1.69,3.81,2.46c1.5,0.76,3.23,1.4,5.19,1.9 c1.96,0.51,4.19,0.76,6.68,0.76c0.65,0,1.6-0.04,2.88-0.14c1.27-0.09,2.71-0.37,4.33-0.83c1.43-0.42,2.84-0.99,4.22-1.73 c1.39-0.74,2.67-1.6,3.84-2.6c1.18-0.99,2.22-2.1,3.12-3.32c0.9-1.22,1.63-2.57,2.18-4.05c0.46-1.25,0.75-2.4,0.87-3.46 c0.11-1.06,0.2-1.82,0.24-2.28h-25.96v-4.09h30.19v25.48h-4.22v-9.94c-0.74,1.29-1.44,2.32-2.11,3.11 c-0.67,0.78-1.23,1.38-1.69,1.79c-0.65,0.6-1.52,1.27-2.63,2c-1.1,0.74-2.42,1.44-3.94,2.11c-1.52,0.67-3.27,1.22-5.23,1.66 c-1.96,0.44-4.12,0.66-6.47,0.66c-0.83,0-1.95-0.06-3.36-0.18c-1.41-0.11-3.08-0.43-5.02-0.93c-0.83-0.19-1.91-0.51-3.22-0.97 c-1.31-0.46-2.71-1.14-4.18-2.04c-1.48-0.9-2.97-2.07-4.47-3.5c-1.5-1.43-2.85-3.21-4.05-5.33c-0.28-0.51-0.61-1.17-1-1.97 c-0.39-0.81-0.75-1.74-1.07-2.8c-0.32-1.06-0.6-2.26-0.83-3.6c-0.24-1.34-0.35-2.79-0.35-4.36c0-0.74,0.05-1.73,0.14-2.98 c0.09-1.25,0.35-2.63,0.76-4.15c0.42-1.52,1.01-3.12,1.8-4.78c0.78-1.66,1.87-3.3,3.26-4.92c0.78-0.92,1.8-1.92,3.04-3.01 c1.25-1.09,2.77-2.09,4.57-3.01c1.8-0.92,3.88-1.7,6.23-2.32c2.36-0.62,5.03-0.93,8.04-0.93c0.6,0,1.6,0.05,3.01,0.14 c1.41,0.09,3,0.34,4.78,0.73c1.78,0.39,3.64,0.99,5.61,1.8c1.96,0.81,3.82,1.93,5.57,3.36c1.66,1.34,2.95,2.67,3.88,3.98 c0.92,1.32,1.59,2.3,2.01,2.94L796.1,294.03z"></path> <path class="st6" d="M817.98,324.77h35.58v4.08h-40.43v-48.88h4.85V324.77z"></path> <path class="st6" d="M862.98,279.97v48.88h-4.77v-48.88H862.98z"></path> <path class="st6" d="M913.66,290.49c-0.51-0.64-0.99-1.24-1.46-1.79c-1.1-1.16-2.35-2.11-3.74-2.88 c-1.38-0.76-2.83-1.37-4.33-1.84c-1.5-0.46-3.05-0.78-4.64-0.97c-1.59-0.18-3.15-0.28-4.67-0.28c-0.37,0-1,0.01-1.9,0.04 c-0.9,0.03-1.95,0.13-3.15,0.31c-1.2,0.19-2.47,0.48-3.81,0.88c-1.34,0.39-2.6,0.94-3.81,1.64c-0.69,0.42-1.36,0.92-2.01,1.5 c-0.65,0.58-1.17,1.25-1.59,1.99c-0.14,0.23-0.32,0.66-0.55,1.29c-0.23,0.63-0.35,1.36-0.35,2.2c0,0.89,0.15,1.63,0.45,2.23 c0.3,0.61,0.66,1.12,1.08,1.53c0.41,0.42,0.84,0.75,1.28,0.98c0.44,0.23,0.77,0.42,1,0.56c1.01,0.51,2.21,0.88,3.57,1.12 c1.36,0.23,3.2,0.51,5.51,0.84c5.31,0.79,9.71,1.43,13.22,1.94c3.51,0.51,6.34,1.22,8.52,2.14c2.21,0.92,3.98,2.28,5.29,4.05 c1.32,1.78,1.97,3.89,1.97,6.33c0,0.69-0.13,1.71-0.38,3.04c-0.26,1.34-0.89,2.75-1.9,4.22c-0.79,1.11-1.77,2.17-2.98,3.19 c-1.2,1.02-2.69,1.93-4.46,2.74c-1.78,0.81-3.84,1.44-6.16,1.9c-2.33,0.46-5,0.69-8,0.69c-0.69,0-1.38-0.01-2.08-0.04 c-0.69-0.02-1.41-0.05-2.14-0.1c-0.51-0.05-1.47-0.14-2.88-0.28c-1.41-0.14-3.01-0.44-4.81-0.9c-1.8-0.46-3.66-1.17-5.57-2.11 c-1.92-0.95-3.64-2.22-5.16-3.84c-0.92-0.97-1.68-1.96-2.29-2.97c-0.6-1.02-1.22-2.1-1.87-3.26l5.12-1.94 c0.14,0.41,0.35,0.91,0.62,1.49c0.28,0.58,0.63,1.21,1.08,1.9c0.43,0.69,0.99,1.4,1.66,2.11c0.67,0.72,1.49,1.4,2.46,2.04 c1.43,0.92,3.39,1.75,5.89,2.49c2.49,0.74,5.7,1.11,9.63,1.11c0.46,0,1.2-0.01,2.21-0.04c1.01-0.02,2.17-0.14,3.46-0.34 c1.29-0.21,2.67-0.53,4.12-0.97c1.46-0.44,2.85-1.05,4.19-1.84c1.47-0.92,2.71-2.04,3.7-3.36c0.99-1.31,1.49-2.87,1.49-4.67 c0-1.43-0.27-2.55-0.83-3.36c-0.55-0.8-1.04-1.39-1.46-1.77c-0.78-0.64-1.83-1.18-3.15-1.62c-1.32-0.44-2.71-0.81-4.16-1.11 c-1.45-0.3-2.89-0.54-4.29-0.73c-1.41-0.18-2.55-0.35-3.43-0.49c-1.47-0.23-2.95-0.42-4.43-0.59c-1.48-0.16-2.96-0.36-4.43-0.59 c-1.57-0.23-3.24-0.51-5.02-0.83c-1.78-0.32-3.38-0.85-4.81-1.59c-0.42-0.19-0.96-0.5-1.63-0.94c-0.67-0.44-1.32-1.03-1.94-1.76 c-0.63-0.74-1.16-1.63-1.59-2.67c-0.44-1.04-0.66-2.27-0.66-3.7c0-2.36,0.67-4.48,2.01-6.37c1.34-1.89,3-3.39,4.98-4.5 c2.22-1.2,4.73-2.05,7.55-2.56c2.82-0.51,5.47-0.76,7.96-0.76c0.74,0,1.84,0.05,3.29,0.13c1.46,0.09,3.08,0.33,4.88,0.71 c1.8,0.38,3.69,0.97,5.68,1.77c1.98,0.8,3.9,1.96,5.74,3.48c0.88,0.74,1.58,1.4,2.11,1.98c0.53,0.58,0.93,1.05,1.21,1.42 L913.66,290.49z"></path> <path class="st6" d="M932.35,300.88h41.06v-20.91h4.78v48.88h-4.78v-23.88h-41.06v23.88h-4.78v-48.88h4.78V300.88z"></path> </g> </g> <g> <g> <path class="st3" d="M1186.42,146.95c7.67,8.79,11.5,19.41,11.5,31.87c0,5.32-0.78,10.33-2.22,15.04l29.35,14.19 c3.46-9.07,5.2-18.92,5.2-29.54c0-21.24-7.05-39.32-21.15-54.24c-12.33-13.2-27.15-20.7-44.48-22.53v32.09 C1173.12,135.54,1180.39,139.9,1186.42,146.95z"></path> <path class="st4" d="M1116.96,195.81c-1.9-5.27-2.86-10.93-2.86-17c0-12.46,3.83-23.14,11.49-32.03 c6.08-6.93,13.35-11.24,21.81-12.94v-32.1c-17.36,1.85-32.25,9.34-44.64,22.52c-14,15.01-21,33.2-21,54.55 c0,11.28,2.01,21.65,5.93,31.16L1116.96,195.81z"></path> <path class="st5" d="M1187.68,209.09c-0.42,0.53-0.81,1.07-1.26,1.59c-8.07,9.5-18.18,14.25-30.34,14.25 c-12.05,0-22.16-4.75-30.34-14.25l-29.69,14.36c2.04,2.86,4.22,5.65,6.71,8.32c14.3,15.52,32.08,23.29,53.32,23.29 c21.15,0,38.87-7.81,53.18-23.44c2.92-3.16,5.47-6.49,7.78-9.92L1187.68,209.09z"></path> </g> </g> </g> </g> <g id="O" class="st0"> <g class="st1"> <g> <g> <path class="st3" d="M391.86,143.41c7.67,8.79,11.5,19.41,11.5,31.87c0,5.33-0.78,10.33-2.22,15.04l29.35,14.19 c3.46-9.08,5.2-18.92,5.2-29.54c0-21.24-7.05-39.33-21.15-54.24c-12.33-13.2-27.15-20.7-44.48-22.53v32.09 C378.55,132.01,385.83,136.37,391.86,143.41z"></path> <path class="st4" d="M322.4,192.28c-1.9-5.27-2.86-10.93-2.86-17c0-12.46,3.83-23.14,11.49-32.03 c6.08-6.92,13.35-11.24,21.81-12.94v-32.1c-17.37,1.85-32.25,9.34-44.64,22.52c-14,15.01-21,33.2-21,54.55 c0,11.28,2.01,21.65,5.92,31.16L322.4,192.28z"></path> <path class="st5" d="M393.12,205.56c-0.42,0.53-0.81,1.08-1.26,1.59c-8.07,9.51-18.18,14.26-30.34,14.26 c-12.05,0-22.16-4.75-30.34-14.26l-29.69,14.36c2.04,2.86,4.22,5.66,6.71,8.32c14.3,15.53,32.08,23.29,53.32,23.29 c21.15,0,38.87-7.82,53.18-23.44c2.92-3.16,5.47-6.49,7.78-9.92L393.12,205.56z"></path> </g> </g> </g> </g> </svg> 